<svg width="16" height="17" viewBox="0 0 16 17" fill="none" xmlns="http://www.w3.org/2000/svg">
<path d="M7.6322 6.2749C7.11951 6.39976 6.70621 6.81294 6.58142 7.32568C6.45418 7.83508 6.59066 8.35698 6.96619 8.72607V8.72705C6.9678 8.72866 6.96945 8.73033 6.97107 8.73193V8.73096C7.34876 9.10568 7.85934 9.22887 8.36365 9.11475L8.37048 9.11279C8.71553 9.02986 9.01318 8.8145 9.2113 8.52783C9.01542 8.81558 8.71913 9.03174 8.37537 9.1167C8.24207 9.14433 8.11804 9.15964 8.00037 9.15967C7.66065 9.15967 7.33652 9.04658 7.06873 8.82959L6.9574 8.72998C6.59925 8.36978 6.45179 7.84947 6.57361 7.32666L6.57263 7.32568C6.69654 6.81071 7.1139 6.39566 7.62927 6.27295L7.6322 6.27197C7.68642 6.25868 7.74107 6.24995 7.79529 6.24268L7.6322 6.2749ZM7.80798 6.23975C7.84217 6.23545 7.87647 6.23485 7.91052 6.23291C7.87585 6.23531 7.84134 6.23509 7.80798 6.23975Z" fill="white" stroke="white"/>
<path d="M8.00037 1.83334C11.2307 1.83354 13.8597 4.46329 13.8597 7.6937C13.8597 7.69565 13.8597 7.6976 13.8597 7.69955C13.8595 4.4704 11.2295 1.84037 8.00037 1.84018C4.77104 1.84018 2.14026 4.47028 2.14001 7.69955C2.14001 7.6976 2.14001 7.69565 2.14001 7.6937C2.14001 4.46317 4.76984 1.83334 8.00037 1.83334Z" fill="white" stroke="white"/>
<path d="M11.6504 8.04785C11.5746 8.84809 11.2383 9.6001 10.6797 10.1934C11.2348 9.60044 11.574 8.84398 11.6504 8.0459V8.04785ZM11.6104 7.06738C11.6253 7.15276 11.6386 7.2389 11.6475 7.32617L11.6621 7.51172C11.6545 7.3609 11.6357 7.21281 11.6104 7.06738ZM5.96191 4.66602C5.47502 4.99547 5.07128 5.43943 4.78906 5.95801V5.95703C4.84551 5.85337 4.90679 5.75261 4.97266 5.65527C5.07136 5.50935 5.18069 5.37118 5.29883 5.24121C5.37782 5.15431 5.46095 5.07118 5.54785 4.99219C5.67782 4.87405 5.81599 4.76472 5.96191 4.66602ZM8.96875 4.16895C8.89438 4.14868 8.81931 4.12986 8.74316 4.11426C8.8193 4.12989 8.8944 4.14865 8.96875 4.16895Z" fill="white" stroke="white"/>
<path d="M8.96008 15.6667H7.04675C6.28675 15.6667 5.6134 15.24 5.28674 14.56C4.96007 13.88 5.04674 13.0867 5.52007 12.4933L6.48008 11.3C6.85341 10.8333 7.40674 10.5667 8.00674 10.5667C8.60674 10.5667 9.16008 10.8333 9.53341 11.3L10.4934 12.4933C10.9667 13.0867 11.0601 13.88 10.7267 14.56C10.3867 15.24 9.71341 15.6667 8.96008 15.6667ZM7.25341 11.92L6.29341 13.1133C6.06008 13.4067 6.01341 13.7867 6.18008 14.12C6.34008 14.46 6.66674 14.66 7.04007 14.66H8.9534C9.32674 14.66 9.65341 14.46 9.81341 14.12C9.97341 13.78 9.93341 13.4067 9.70008 13.1133L8.74007 11.92C8.38007 11.4667 7.62008 11.4667 7.25341 11.92Z" fill="white"/>
</svg>
