<svg width="27" height="26" viewBox="0 0 27 26" fill="none" xmlns="http://www.w3.org/2000/svg">
<path d="M25.1933 15.7732C25.1504 15.7103 24.0985 14.2275 20.7211 13.1701C19.4599 12.7758 18.161 12.5137 16.8456 12.3881C20.1746 8.60818 21.1141 5.25958 16.3117 4.08908C12.9998 3.38595 6.82053 6.9719 4.13518 10.3837C1.94946 12.8133 -0.252739 16.9829 0.474731 19.3366C0.59544 19.93 0.897642 20.4713 1.3395 20.8854C1.78137 21.2995 2.34103 21.566 2.94104 21.648C3.70457 21.7346 4.47767 21.6705 5.21649 21.4592C6.81841 22.3146 9.01547 22.7495 11.7811 22.7495C12.89 22.7728 14.2368 22.6074 15.3714 22.6239C19.2273 22.7796 29.7954 22.0165 25.1933 15.7732ZM20.2323 13.9939C20.6943 15.2114 20.9488 16.4977 20.9851 17.7994C20.9935 17.974 20.9564 18.1477 20.8774 18.3037C20.6701 18.7403 20.3557 18.8572 19.9119 18.5114C19.8354 18.4464 19.7775 18.3624 19.7439 18.2679C19.7104 18.1734 19.7024 18.0716 19.7209 17.973C19.8458 16.883 19.4507 15.4993 19.0981 14.5327C18.9864 14.2227 18.8554 13.9128 18.709 13.6051C19.2229 13.7091 19.7314 13.8389 20.2323 13.9939ZM14.9141 14.3612C15.2881 15.387 15.5303 16.4562 15.6349 17.543C15.6578 17.728 15.6272 17.9157 15.5466 18.0838C15.4661 18.2518 15.339 18.3933 15.1805 18.4913C15.0806 18.5094 14.9779 18.5049 14.88 18.4782C14.782 18.4516 14.6913 18.4034 14.6143 18.3372C14.5374 18.2709 14.4762 18.1884 14.4352 18.0955C14.3942 18.0027 14.3745 17.9018 14.3775 17.8004C14.3825 16.9385 14.22 16.084 13.8989 15.2842C14.2479 14.9792 14.5863 14.6715 14.9141 14.3612ZM10.8401 6.26817C11.0297 6.17507 11.21 6.09255 11.3917 6.01039C12.5437 6.6225 13.5846 7.42399 14.4707 8.38133C14.5917 8.50729 14.6779 8.66247 14.721 8.8317C14.8517 9.29651 14.6918 9.5927 14.1303 9.6229C14.0301 9.62371 13.9315 9.59833 13.8442 9.54926C13.7568 9.5002 13.6838 9.42917 13.6324 9.3432C13.0096 8.43928 11.8019 7.65712 10.9007 7.1608C9.98417 6.66678 9.752 6.80592 10.8401 6.26817ZM6.44389 9.32302C8.02785 9.69028 9.76364 11.2306 10.2747 11.7116C10.4127 11.8354 10.5122 11.996 10.5615 12.1746C10.6109 12.3532 10.608 12.5422 10.5531 12.7192C10.4896 12.7986 10.4092 12.8628 10.3177 12.9072C10.2262 12.9515 10.126 12.975 10.0243 12.9757C9.92262 12.9765 9.82206 12.9546 9.72992 12.9116C9.63779 12.8686 9.5564 12.8056 9.49168 12.7271C8.77418 11.9176 7.89166 11.2711 6.90347 10.831C5.43978 10.1088 4.93593 10.7583 6.44389 9.32302ZM3.13256 13.299C4.22684 13.9015 5.21728 14.6758 6.06608 15.5923C6.18889 15.7207 6.27746 15.8779 6.32363 16.0495C6.38754 16.2371 6.37652 16.4422 6.29285 16.6219C6.22378 16.6969 6.13898 16.7556 6.04452 16.794C5.95007 16.8323 5.8483 16.8493 5.74651 16.8437C5.64472 16.8381 5.54543 16.8101 5.45576 16.7616C5.36608 16.7131 5.28824 16.6454 5.2278 16.5633C4.63019 15.6892 3.47983 14.9223 2.49067 14.3784C2.68213 14.0266 2.89609 13.6668 3.13256 13.299ZM3.061 20.7287C0.587668 20.1674 1.11474 17.3476 2.0738 15.2085C2.87613 15.6527 3.95491 16.3437 4.46554 17.0906C4.61486 17.3164 4.82211 17.4979 5.06561 17.6162C5.30911 17.7345 5.57992 17.7852 5.84972 17.763C6.08276 17.7672 6.31334 17.7147 6.52155 17.6099C6.72975 17.5052 6.90933 17.3513 7.04479 17.1616C7.18024 16.972 7.2675 16.7522 7.29902 16.5212C7.33055 16.2903 7.3054 16.0551 7.22574 15.8361C7.14194 15.5077 6.97589 15.206 6.74323 14.9596C5.8438 13.9915 4.80038 13.1679 3.6498 12.518C3.96049 12.0673 4.30258 11.6328 4.66185 11.1962C6.10362 11.1799 8.10091 12.4556 8.76155 13.2986C9.80055 14.645 12.0905 13.5473 11.4357 11.8807C11.3381 11.5584 11.1572 11.2676 10.9111 11.0377C9.85639 10.012 8.62265 9.1882 7.271 8.60716C7.82414 8.14821 8.40314 7.72137 9.00516 7.32874C10.3632 7.77398 12.3002 8.99642 12.8656 9.86374C13.4079 10.8008 14.9172 10.7039 15.4466 9.93814C15.8825 9.37508 15.6895 8.27485 15.1429 7.74288C14.3574 6.90502 13.4692 6.16967 12.4995 5.55427C14.8276 4.71069 16.0725 4.98519 16.0975 4.99082C17.5238 5.30382 18.3684 5.85966 18.6078 6.64296C19.4012 8.63712 15.175 13.1103 12.8139 14.998C10.085 17.5089 6.90744 20.9992 3.061 20.7287ZM25.2074 19.2884C24.1879 21.4955 17.8965 21.7524 13.9519 21.7397C10.853 21.9657 8.30869 21.7105 6.4876 21.0145C8.61784 20.1029 10.7261 18.3417 12.4175 16.6287C12.6191 16.4297 12.8715 16.1845 13.1461 15.9387C13.3534 16.5182 13.457 17.1298 13.4523 17.7453C13.4288 18.0093 13.4767 18.2747 13.5909 18.5137C13.7052 18.7528 13.8817 18.9567 14.1018 19.1042C14.2831 19.2544 14.4983 19.358 14.7288 19.406C14.9592 19.4541 15.198 19.4451 15.4241 19.3798C15.6503 19.3145 15.8571 19.1949 16.0266 19.0315C16.196 18.868 16.3229 18.6656 16.3962 18.4419C16.5343 18.1334 16.59 17.7944 16.5578 17.4579C16.4375 16.1558 16.1245 14.8788 15.6292 13.6686C15.7644 13.534 15.9002 13.398 16.0378 13.2558C16.5528 13.2872 17.0612 13.3393 17.5585 13.4107C18.2881 14.6374 18.9459 16.8369 18.8007 17.8608C18.7608 18.1241 18.7926 18.3933 18.8927 18.6401C18.9928 18.8869 19.1576 19.1022 19.3697 19.2633C19.5421 19.4243 19.7514 19.5405 19.9792 19.6019C20.207 19.6633 20.4464 19.6679 20.6764 19.6153C20.9064 19.5627 21.12 19.4546 21.2985 19.3003C21.477 19.1461 21.6149 18.9504 21.7003 18.7305C21.8537 18.431 21.9264 18.0967 21.9112 17.7605C21.8724 16.6145 21.689 15.478 21.3654 14.3779C23.6694 15.2715 24.4247 16.2916 24.4392 16.3118C25.3395 17.5269 25.598 18.5284 25.2074 19.2884Z" fill="#203686"/>
</svg>
