<svg width="27" height="26" viewBox="0 0 27 26" fill="none" xmlns="http://www.w3.org/2000/svg">
<path d="M18.8187 13.0763C19.1079 13.0763 19.3419 13.3103 19.3419 13.5995C19.3419 13.8888 19.1079 14.1228 18.8187 14.1228H2.2047C1.91545 14.1228 1.68145 13.8888 1.68145 13.5995C1.68145 13.3103 1.91545 13.0763 2.2047 13.0763H18.8187ZM24.2755 15.933V18.5558H19.1567V16.7748C20.7752 16.479 21.9744 15.0523 21.9744 13.3883C21.9744 11.4903 20.4307 9.94653 18.5327 9.94653C17.0344 9.94653 15.7052 10.9248 15.2534 12.3418H12.7899V9.05928H24.2787V15.933H24.2755ZM25.0067 14.2495V6.13753C25.5365 5.99128 25.9264 5.50377 25.9264 4.92852C25.9264 4.23627 25.3642 3.67078 24.6687 3.67078H12.3934C11.7012 3.67078 11.1357 4.23302 11.1357 4.92852C11.1357 5.50377 11.5257 5.99128 12.0554 6.13753V12.3483H7.97995L8.19119 10.434C8.23019 10.0863 8.11644 9.73852 7.88569 9.48177C7.65169 9.22177 7.32019 9.07227 6.97244 9.07227H5.71795C5.3702 9.07227 5.03545 9.22177 4.8047 9.48177C4.5707 9.74177 4.4602 10.0895 4.4992 10.434L4.71045 12.3483H2.20794C1.51569 12.3483 0.950195 12.9105 0.950195 13.606C0.950195 14.1813 1.3402 14.6688 1.86995 14.815V22.0983C1.3402 22.2478 0.950195 22.732 0.950195 23.3073C0.950195 23.9995 1.51244 24.565 2.20794 24.565H24.6752C25.3674 24.565 25.933 24.0028 25.933 23.3073C25.933 22.732 25.5429 22.2445 25.0132 22.0983V14.2495H25.0067ZM2.20145 23.8273C1.9122 23.8273 1.6782 23.5933 1.6782 23.304C1.6782 23.0148 1.9122 22.7808 2.20145 22.7808H18.8154C19.1047 22.7808 19.3387 23.0148 19.3387 23.304C19.3387 23.5933 19.1047 23.8273 18.8154 23.8273H2.20145ZM12.7867 8.33127V6.18302H24.2755V8.33127H12.7867ZM11.8669 4.92528C11.8669 4.63603 12.1009 4.40203 12.3902 4.40203H24.6654C24.9547 4.40203 25.1887 4.63603 25.1887 4.92528C25.1887 5.21453 24.9547 5.44853 24.6654 5.44853H12.3902C12.1042 5.44853 11.8669 5.21453 11.8669 4.92528ZM5.2207 10.3528C5.20445 10.2098 5.24995 10.0733 5.3442 9.96927C5.43845 9.86202 5.5717 9.80352 5.7147 9.80352H6.9692C7.1122 9.80352 7.2422 9.86202 7.3397 9.96927C7.43395 10.0765 7.47945 10.213 7.4632 10.3528L7.24544 12.345H5.44495L5.2207 10.3528ZM24.2755 19.287V22.0463H19.1567V19.287H24.2755ZM18.4222 22.0463H2.59469V14.8573H18.4222V22.0463ZM20.0732 13.6028C20.0732 12.9105 19.5109 12.345 18.8154 12.345H16.0269C16.443 11.3505 17.4277 10.681 18.5294 10.681C20.0244 10.681 21.2399 11.8965 21.2399 13.3915C21.2399 14.6558 20.3592 15.7445 19.1534 16.0305V14.815C19.6832 14.6655 20.0732 14.178 20.0732 13.6028ZM24.6687 23.8273H19.9594C20.0342 23.668 20.0732 23.4893 20.0732 23.304C20.0732 23.1155 20.031 22.94 19.9594 22.7808H24.6687C24.9579 22.7808 25.1919 23.0148 25.1919 23.304C25.1919 23.5933 24.9579 23.8273 24.6687 23.8273Z" fill="#203686"/>
<path d="M6.72871 10.6159H5.95196C5.75046 10.6159 5.58471 10.7784 5.58471 10.9832C5.58471 11.1847 5.74721 11.3504 5.95196 11.3504H6.72871C6.93021 11.3504 7.09596 11.1879 7.09596 10.9832C7.09596 10.7784 6.93021 10.6159 6.72871 10.6159Z" fill="#203686"/>
<path d="M6.45562 20.038C6.53362 20.064 6.58237 20.129 6.58237 20.2005V20.2168C6.58237 20.7108 6.98536 21.1138 7.47936 21.1138H13.5341C14.0281 21.1138 14.4311 20.7108 14.4311 20.2168V20.2038C14.4311 20.1323 14.4831 20.0673 14.5611 20.0413C15.2599 19.8235 15.7311 19.1865 15.7311 18.452C15.7311 17.7338 15.2729 17.1 14.5936 16.8725C14.4961 16.84 14.4311 16.749 14.4311 16.645C14.4311 16.151 14.0281 15.748 13.5341 15.748H7.48262C6.98862 15.748 6.58561 16.151 6.58561 16.645C6.58561 16.749 6.51737 16.8433 6.41987 16.879C5.75362 17.113 5.30511 17.7435 5.30511 18.4488C5.30186 19.18 5.76662 19.817 6.45562 20.038ZM6.66037 17.5745C7.05362 17.438 7.31686 17.0643 7.31686 16.6483C7.31686 16.5573 7.39162 16.4825 7.48262 16.4825H13.5374C13.6284 16.4825 13.7031 16.5573 13.7031 16.6483C13.7031 17.0675 13.9696 17.4348 14.3661 17.568C14.7464 17.6948 15.0031 18.0523 15.0031 18.452C15.0031 18.8615 14.7399 19.2223 14.3466 19.3425C13.9631 19.4628 13.7031 19.8073 13.7031 20.2038V20.2168C13.7031 20.3078 13.6284 20.3825 13.5374 20.3825H7.48262C7.39162 20.3825 7.31686 20.3078 7.31686 20.2168V20.2005C7.31686 19.8105 7.06012 19.4628 6.68312 19.3425C6.29637 19.219 6.03636 18.8615 6.03636 18.4553C6.03636 18.0588 6.28662 17.7045 6.66037 17.5745Z" fill="#203686"/>
<path d="M18.8187 13.0763C19.1079 13.0763 19.3419 13.3103 19.3419 13.5995C19.3419 13.8888 19.1079 14.1228 18.8187 14.1228H2.2047C1.91545 14.1228 1.68145 13.8888 1.68145 13.5995C1.68145 13.3103 1.91545 13.0763 2.2047 13.0763H18.8187ZM24.2755 15.933V18.5558H19.1567V16.7748C20.7752 16.479 21.9744 15.0523 21.9744 13.3883C21.9744 11.4903 20.4307 9.94653 18.5327 9.94653C17.0344 9.94653 15.7052 10.9248 15.2534 12.3418H12.7899V9.05928H24.2787V15.933H24.2755ZM25.0067 14.2495V6.13753C25.5365 5.99128 25.9264 5.50377 25.9264 4.92852C25.9264 4.23627 25.3642 3.67078 24.6687 3.67078H12.3934C11.7012 3.67078 11.1357 4.23302 11.1357 4.92852C11.1357 5.50377 11.5257 5.99128 12.0554 6.13753V12.3483H7.97995L8.19119 10.434C8.23019 10.0863 8.11644 9.73852 7.88569 9.48177C7.65169 9.22177 7.32019 9.07227 6.97244 9.07227H5.71795C5.3702 9.07227 5.03545 9.22177 4.8047 9.48177C4.5707 9.74177 4.4602 10.0895 4.4992 10.434L4.71045 12.3483H2.20794C1.51569 12.3483 0.950195 12.9105 0.950195 13.606C0.950195 14.1813 1.3402 14.6688 1.86995 14.815V22.0983C1.3402 22.2478 0.950195 22.732 0.950195 23.3073C0.950195 23.9995 1.51244 24.565 2.20794 24.565H24.6752C25.3674 24.565 25.933 24.0028 25.933 23.3073C25.933 22.732 25.5429 22.2445 25.0132 22.0983V14.2495H25.0067ZM2.20145 23.8273C1.9122 23.8273 1.6782 23.5933 1.6782 23.304C1.6782 23.0148 1.9122 22.7808 2.20145 22.7808H18.8154C19.1047 22.7808 19.3387 23.0148 19.3387 23.304C19.3387 23.5933 19.1047 23.8273 18.8154 23.8273H2.20145ZM12.7867 8.33127V6.18302H24.2755V8.33127H12.7867ZM11.8669 4.92528C11.8669 4.63603 12.1009 4.40203 12.3902 4.40203H24.6654C24.9547 4.40203 25.1887 4.63603 25.1887 4.92528C25.1887 5.21453 24.9547 5.44853 24.6654 5.44853H12.3902C12.1042 5.44853 11.8669 5.21453 11.8669 4.92528ZM5.2207 10.3528C5.20445 10.2098 5.24995 10.0733 5.3442 9.96927C5.43845 9.86202 5.5717 9.80352 5.7147 9.80352H6.9692C7.1122 9.80352 7.2422 9.86202 7.3397 9.96927C7.43395 10.0765 7.47945 10.213 7.4632 10.3528L7.24544 12.345H5.44495L5.2207 10.3528ZM24.2755 19.287V22.0463H19.1567V19.287H24.2755ZM18.4222 22.0463H2.59469V14.8573H18.4222V22.0463ZM20.0732 13.6028C20.0732 12.9105 19.5109 12.345 18.8154 12.345H16.0269C16.443 11.3505 17.4277 10.681 18.5294 10.681C20.0244 10.681 21.2399 11.8965 21.2399 13.3915C21.2399 14.6558 20.3592 15.7445 19.1534 16.0305V14.815C19.6832 14.6655 20.0732 14.178 20.0732 13.6028ZM24.6687 23.8273H19.9594C20.0342 23.668 20.0732 23.4893 20.0732 23.304C20.0732 23.1155 20.031 22.94 19.9594 22.7808H24.6687C24.9579 22.7808 25.1919 23.0148 25.1919 23.304C25.1919 23.5933 24.9579 23.8273 24.6687 23.8273Z" stroke="#203686" stroke-width="0.1225" stroke-miterlimit="10"/>
<path d="M6.72871 10.6159H5.95196C5.75046 10.6159 5.58471 10.7784 5.58471 10.9832C5.58471 11.1847 5.74721 11.3504 5.95196 11.3504H6.72871C6.93021 11.3504 7.09596 11.1879 7.09596 10.9832C7.09596 10.7784 6.93021 10.6159 6.72871 10.6159Z" stroke="#203686" stroke-width="0.1225" stroke-miterlimit="10"/>
<path d="M6.45562 20.038C6.53362 20.064 6.58237 20.129 6.58237 20.2005V20.2168C6.58237 20.7108 6.98536 21.1138 7.47936 21.1138H13.5341C14.0281 21.1138 14.4311 20.7108 14.4311 20.2168V20.2038C14.4311 20.1323 14.4831 20.0673 14.5611 20.0413C15.2599 19.8235 15.7311 19.1865 15.7311 18.452C15.7311 17.7338 15.2729 17.1 14.5936 16.8725C14.4961 16.84 14.4311 16.749 14.4311 16.645C14.4311 16.151 14.0281 15.748 13.5341 15.748H7.48262C6.98862 15.748 6.58561 16.151 6.58561 16.645C6.58561 16.749 6.51737 16.8433 6.41987 16.879C5.75362 17.113 5.30511 17.7435 5.30511 18.4488C5.30186 19.18 5.76662 19.817 6.45562 20.038ZM6.66037 17.5745C7.05362 17.438 7.31686 17.0643 7.31686 16.6483C7.31686 16.5573 7.39162 16.4825 7.48262 16.4825H13.5374C13.6284 16.4825 13.7031 16.5573 13.7031 16.6483C13.7031 17.0675 13.9696 17.4348 14.3661 17.568C14.7464 17.6948 15.0031 18.0523 15.0031 18.452C15.0031 18.8615 14.7399 19.2223 14.3466 19.3425C13.9631 19.4628 13.7031 19.8073 13.7031 20.2038V20.2168C13.7031 20.3078 13.6284 20.3825 13.5374 20.3825H7.48262C7.39162 20.3825 7.31686 20.3078 7.31686 20.2168V20.2005C7.31686 19.8105 7.06012 19.4628 6.68312 19.3425C6.29637 19.219 6.03636 18.8615 6.03636 18.4553C6.03636 18.0588 6.28662 17.7045 6.66037 17.5745Z" stroke="#203686" stroke-width="0.1225" stroke-miterlimit="10"/>
</svg>
