<svg width="27" height="26" viewBox="0 0 27 26" fill="none" xmlns="http://www.w3.org/2000/svg">
<path d="M20.2193 3.08093C20.4147 2.88268 20.4147 2.56093 20.2193 2.36268C20.0238 2.16443 19.7066 2.16443 19.5111 2.36268C19.3157 2.56093 19.3157 2.88268 19.5111 3.08093C19.6041 3.17518 19.7322 3.23043 19.8668 3.23043C19.9982 3.22718 20.1264 3.17518 20.2193 3.08093Z" fill="#203686"/>
<path d="M15.9738 9.24641C16.1436 9.24641 16.2942 9.14241 16.3583 8.98641C16.4224 8.83041 16.3871 8.64516 16.2686 8.52491C14.5158 6.74716 15.4483 5.65191 15.5636 5.53166C15.7206 5.36591 15.7174 5.09941 15.5572 4.93691C15.397 4.77441 15.1343 4.77441 14.9708 4.93366C14.9548 4.94991 13.2886 6.69841 15.679 9.12291C15.7559 9.20416 15.8616 9.24641 15.9738 9.24641Z" fill="#203686"/>
<path d="M14.4965 10.319C12.5964 8.39177 13.1571 6.51977 13.1828 6.44177C13.2308 6.29877 13.1956 6.13952 13.0995 6.02577C13.0001 5.91202 12.8495 5.86327 12.7021 5.89252C12.5548 5.92177 12.4362 6.03227 12.3913 6.17527C12.3593 6.27277 11.6287 8.60302 13.9069 10.917C14.0704 11.0828 14.3331 11.0828 14.4965 10.917C14.6599 10.7545 14.6599 10.4848 14.4965 10.319Z" fill="#203686"/>
<path d="M21.8695 13.4258C25.3557 9.27876 25.2628 3.7115 25.0449 1.4495C24.968 0.741004 24.4137 0.178755 23.7119 0.104005C21.7766 -0.0877454 17.3547 -0.181996 13.5449 2.12875C12.0004 1.70625 8.92437 1.53075 5.03122 4.78725C4.83577 4.953 4.714 5.19675 4.70119 5.4535C4.68837 5.71675 4.7877 5.9735 4.97034 6.15875L8.07525 9.308C7.65229 10.66 7.37352 12.051 7.24535 13.4648C6.05337 13.3868 4.88062 13.806 3.99625 14.625L0.45557 18.213C0.292154 18.3788 0.292154 18.6453 0.45557 18.811C0.554901 18.9118 2.67931 21.0308 5.08249 20.579C4.6371 23.0165 6.72626 25.1745 6.82559 25.272C6.98901 25.4378 7.25176 25.4378 7.41517 25.272L10.9559 21.6808C11.9652 20.657 12.151 19.2498 12.0934 18.122C12.3401 18.0928 12.7438 18.0765 13.5225 17.8653V16.1948C13.6026 16.172 15.1132 14.886 15.1902 14.8535C16.1328 14.4652 17.1425 13.078 18.9044 14.9772C19.5971 15.0412 20.2018 15.0178 20.5686 14.7225L21.8695 13.4258ZM23.6318 0.945755C23.933 0.981505 24.1734 1.222 24.2118 1.53075C24.4489 3.95525 24.2054 6.40251 23.4941 8.72951C21.7862 8.359 20.2225 7.49776 18.9825 6.24975C17.7521 4.992 16.9029 3.40275 16.5344 1.67375C18.8287 0.952255 21.2415 0.705255 23.6318 0.945755ZM5.55992 5.564C5.5407 5.54775 5.53429 5.52175 5.53429 5.49575C5.53429 5.473 5.5439 5.45351 5.55992 5.44051C8.58793 2.90875 11.0296 2.6 12.5548 2.79175C12.1991 3.055 11.8595 3.33775 11.5358 3.63675C10.1388 4.96925 9.06215 6.60725 8.38286 8.42725L5.55992 5.564ZM10.3663 21.0893L7.13961 24.362C6.57246 23.6568 5.3901 21.8985 6.06299 20.1858L6.70704 19.5325C6.81598 19.4253 6.85764 19.2693 6.82239 19.1198C6.78394 18.9703 6.67179 18.8565 6.5244 18.8175C6.377 18.7785 6.2232 18.824 6.11746 18.9345L5.47341 19.5878C3.78477 20.2703 2.05128 19.071 1.35596 18.4958L4.58263 15.223C5.29076 14.5828 6.2232 14.2545 7.17165 14.313C7.12039 15.1125 7.09796 15.9413 7.11718 16.8058C7.14602 17.6053 7.77726 18.2455 8.5655 18.2813C8.78339 18.2845 8.99807 18.2878 9.21275 18.2878C9.91768 18.2878 10.597 18.2618 11.2603 18.2098C11.3083 19.1458 11.1577 20.2898 10.3663 21.0893ZM8.58472 17.4363C8.24187 17.4168 7.96951 17.1405 7.95349 16.7928C7.84134 11.1703 9.23518 6.955 12.103 4.26075C13.1668 3.276 14.4004 2.496 15.743 1.96625C16.1563 3.81225 17.0728 5.50551 18.3897 6.85101C19.713 8.18676 21.3793 9.11626 23.1993 9.53551C22.6962 10.8355 21.972 12.0315 21.0588 13.078C20.1597 13.9213 19.7054 14.3613 18.9044 14.3892C18.0755 14.4181 17.5116 12.9964 16.583 13.925C14.9424 14.6855 15.5411 15.1515 13.7243 15.6455C13.5897 15.6813 13.0835 17.1438 12.9457 17.1633C11.5519 17.3648 10.001 17.4688 8.58472 17.4363Z" fill="#203686"/>
<path d="M16.5951 15.1247C16.4862 15.0955 16.374 15.1117 16.2715 15.1702L15.7812 15.479C15.5794 15.596 15.5121 15.856 15.6274 16.0607C15.6819 16.1582 15.7748 16.2297 15.8838 16.259C15.919 16.2687 15.9575 16.272 15.9927 16.272C16.0664 16.272 16.1369 16.2525 16.201 16.2135L16.6976 15.9015C16.8995 15.7845 16.9668 15.5245 16.8514 15.3197C16.7938 15.2222 16.7041 15.154 16.5951 15.1247Z" fill="#203686"/>
<path d="M22.4556 18.7715C22.3466 18.7422 22.2345 18.7585 22.132 18.817L21.6417 19.1257C21.5456 19.181 21.4751 19.2752 21.4462 19.3825C21.4174 19.493 21.4334 19.6067 21.4879 19.7042C21.5424 19.8017 21.6353 19.8732 21.7442 19.9025C21.7795 19.9122 21.8179 19.9155 21.8532 19.9155C21.9269 19.9155 21.9974 19.896 22.0615 19.857L22.5581 19.545C22.7568 19.428 22.8273 19.168 22.7119 18.9632C22.6542 18.8722 22.5645 18.8007 22.4556 18.7715Z" fill="#203686"/>
<path d="M25.9516 19.0964L22.9941 17.3641C22.7602 17.2276 22.4654 17.2276 22.2315 17.3641L21.4369 17.8289V16.1324C21.4369 15.8366 21.2799 15.5604 21.0267 15.4109L17.5758 13.3894C17.3226 13.2399 17.0086 13.2399 16.7555 13.3894L16.0377 13.8086C16.0153 13.8216 15.9961 13.8346 15.98 13.8509L15.9768 13.8541L13.3077 15.4109C13.0546 15.5604 12.8976 15.8334 12.8976 16.1324V20.1721C12.8976 20.4679 13.0546 20.7441 13.3077 20.8936L16.7587 22.9151C17.0118 23.0646 17.3258 23.0646 17.579 22.9151L18.8927 22.1449V23.2304C18.8927 23.5066 19.0401 23.7634 19.274 23.8999L22.2315 25.6321C22.3501 25.7004 22.4814 25.7361 22.6128 25.7361C22.7442 25.7361 22.8756 25.7004 22.9941 25.6321L25.9516 23.8999C26.1855 23.7634 26.3329 23.5066 26.3329 23.2304V19.7691C26.3329 19.4929 26.1855 19.2361 25.9516 19.0964ZM16.7491 18.3944V21.9271L13.7371 20.1721L13.7275 16.5094L16.7491 18.3944ZM18.8927 19.7691V21.1634L17.5854 21.9369V18.4009L19.6072 17.2309C19.8091 17.1139 19.8764 16.8539 19.761 16.6491C19.7066 16.5516 19.6136 16.4801 19.5079 16.4509C19.399 16.4216 19.2868 16.4379 19.1907 16.4931L17.172 17.6631L14.2562 15.8431L16.3966 14.5951C16.4158 14.5821 16.4382 14.5691 16.4543 14.5529L16.4575 14.5496L17.1592 14.1271L20.6006 16.1324V18.3196L19.2772 19.0964C19.0401 19.2361 18.8927 19.4929 18.8927 19.7691ZM19.7322 20.1689L22.1931 21.7386V24.6279L19.7322 23.1849V20.1689ZM23.0326 21.7386L25.4934 20.1689V23.1849L23.0326 24.6279V21.7386ZM22.6128 21.0009L20.2609 19.5026L22.6128 18.1246L24.9647 19.5026L22.6128 21.0009Z" fill="#203686"/>
</svg>
