<svg width="29" height="30" viewBox="0 0 29 30" fill="none" xmlns="http://www.w3.org/2000/svg">
<mask id="path-1-outside-1_2710_95924" maskUnits="userSpaceOnUse" x="-0.333008" y="0" width="30" height="30" fill="black">
<rect fill="white" x="-0.333008" width="30" height="30"/>
<path d="M14.667 29C12.7773 29 10.9437 28.6298 9.21754 27.8996C7.55051 27.1944 6.05329 26.185 4.76746 24.8995C3.48195 23.614 2.47229 22.1168 1.76738 20.4494C1.03722 18.7233 0.666992 16.8897 0.666992 15C0.666992 13.1103 1.03722 11.2767 1.76738 9.55055C2.47262 7.88351 3.48195 6.3863 4.76746 5.10046C6.05296 3.81496 7.55017 2.80529 9.21754 2.10039C10.9437 1.37023 12.7773 1 14.667 1C16.5567 1 18.3902 1.37023 20.1164 2.10039C21.7835 2.80563 23.2807 3.81496 24.5665 5.10046C25.852 6.38597 26.8617 7.88318 27.5666 9.55055C28.2968 11.2767 28.667 13.1103 28.667 15C28.667 16.8897 28.2968 18.7233 27.5666 20.4494C26.8614 22.1165 25.852 23.6137 24.5665 24.8995C23.281 26.185 21.7838 27.1947 20.1164 27.8996C18.3902 28.6298 16.5567 29 14.667 29ZM14.667 1.66469C7.31388 1.66469 1.33168 7.64688 1.33168 15C1.33168 22.3531 7.31388 28.3353 14.667 28.3353C22.0201 28.3353 28.0023 22.3531 28.0023 15C28.0023 7.64688 22.0201 1.66469 14.667 1.66469Z"/>
<path d="M6.2668 9.79147C6.20399 9.79147 6.14018 9.77353 6.08401 9.7363C5.9308 9.63527 5.88893 9.42888 5.98996 9.27567C7.92221 6.35138 11.1662 4.60557 14.6668 4.60557C14.9868 4.60557 15.3099 4.62019 15.6266 4.64944C15.8094 4.66606 15.944 4.82791 15.9274 5.0107C15.9108 5.19349 15.7489 5.32776 15.5661 5.31147C15.2693 5.28422 14.9666 5.27059 14.6668 5.27059C11.3899 5.27059 8.35359 6.90506 6.54431 9.64258C6.4805 9.73896 6.37448 9.79147 6.2668 9.79147Z"/>
<path d="M14.9278 25.28C13.7463 25.28 12.5878 25.0819 11.4774 24.6894C11.3043 24.6283 11.2135 24.4385 11.2747 24.2654C11.3358 24.0922 11.5256 24.0015 11.6988 24.0626C12.8706 24.4767 14.1003 24.6595 15.3536 24.606C18.4008 24.4757 21.154 22.9672 22.9077 20.467C23.0131 20.3168 23.2205 20.2802 23.3707 20.3859C23.5209 20.4916 23.5575 20.6986 23.4518 20.8489C22.5555 22.127 21.3633 23.2038 20.0047 23.9636C18.5796 24.7605 17.0243 25.1999 15.3818 25.2704C15.2303 25.2767 15.0787 25.28 14.9278 25.28Z"/>
<path d="M7.57542 23.4699C6.84458 23.4209 6.16896 23.1045 5.66083 22.5702C5.12407 22.0059 4.83921 21.2663 4.85874 20.4879C4.8824 19.5485 5.36177 18.6729 6.14059 18.1452C6.25993 18.0643 6.41811 18.0699 6.53173 18.1588C6.98874 18.5165 7.47164 18.8407 7.96672 19.1223C8.30618 19.3156 8.65742 19.492 9.01108 19.6473C9.014 19.6485 9.01659 19.6497 9.0195 19.6509C9.48154 19.8541 9.96158 20.0271 10.4463 20.1649C10.5852 20.2045 10.6828 20.3293 10.6874 20.4735C10.6892 20.5262 10.6893 20.5802 10.688 20.6344C10.6685 21.4129 10.3471 22.1371 9.78253 22.6738C9.21828 23.2106 8.47874 23.4951 7.70028 23.4756C7.65872 23.4745 7.61687 23.4727 7.57542 23.4699ZM6.32567 18.8378C5.83567 19.2506 5.53982 19.858 5.52348 20.5045C5.50852 21.1053 5.7284 21.6763 6.14253 22.1121C6.55667 22.5479 7.11596 22.7959 7.71683 22.8112C8.3177 22.8265 8.8887 22.6066 9.32451 22.1921C9.73257 21.8041 9.97628 21.2889 10.0177 20.731C9.59049 20.5991 9.16834 20.442 8.75933 20.2627C8.75674 20.2615 8.75414 20.2606 8.75155 20.2595C8.37457 20.0943 7.99981 19.906 7.63787 19.7002C7.18808 19.4435 6.74748 19.1542 6.32567 18.8378Z"/>
<path d="M9.95354 22.2419C9.90181 22.2385 9.84991 22.2227 9.80255 22.1939L5.39631 19.497C5.23985 19.4012 5.1906 19.1967 5.28638 19.0399C5.38213 18.8835 5.58695 18.8342 5.74342 18.93L10.1497 21.6269C10.3061 21.7226 10.3554 21.9271 10.2596 22.0839C10.1927 22.193 10.0729 22.2499 9.95354 22.2419Z"/>
<path d="M8.07928 23.4525C7.90326 23.4724 7.74123 23.3499 7.71389 23.1734L7.1394 19.4847C7.11117 19.3033 7.23542 19.1334 7.41652 19.1052C7.59762 19.077 7.76787 19.2012 7.79607 19.3823L8.37055 23.071C8.39879 23.2524 8.27454 23.4223 8.09344 23.4505C8.08886 23.4514 8.0839 23.4519 8.07928 23.4525Z"/>
<path d="M5.48342 22.1279C5.37366 22.1206 5.26987 22.059 5.21353 21.9553C5.12574 21.7942 5.18523 21.5923 5.34633 21.5045L8.72607 19.6625C8.88717 19.5747 9.08904 19.6342 9.17683 19.7953C9.26463 19.9564 9.20513 20.1583 9.04403 20.2461L5.6643 22.0881C5.60689 22.1195 5.54411 22.132 5.48342 22.1279Z"/>
<path d="M22.9848 10.9037C22.8492 10.9037 22.7215 10.8698 22.6192 10.7718C22.5477 10.7033 22.4374 10.5494 22.5019 10.2869C22.557 10.0629 22.4796 9.79038 22.4051 9.52683C22.3001 9.15626 22.2147 8.79235 22.3214 8.41547C22.3965 8.15026 22.5853 7.91562 22.8269 7.788C23.0293 7.68132 23.2523 7.65972 23.455 7.72818C23.7684 7.83353 23.9961 8.14062 24.0486 8.52049C24.2566 8.34302 24.5787 8.33604 24.8226 8.50553C25.0147 8.63913 25.1121 8.84054 25.1686 8.98045C25.2916 9.28455 25.3191 9.55009 25.2527 9.7927C25.156 10.1463 24.8539 10.4341 24.4238 10.5827C24.248 10.6435 24.0738 10.6767 23.9053 10.709C23.7834 10.7322 23.6684 10.7542 23.5597 10.7854C23.5401 10.7911 23.5195 10.797 23.4982 10.8034C23.3377 10.8502 23.1549 10.9037 22.9848 10.9037ZM23.2141 8.35365C23.1911 8.35365 23.1656 8.3613 23.1373 8.37592C23.0572 8.41813 22.9864 8.50686 22.9612 8.59626C22.9017 8.8063 22.9638 9.05988 23.0449 9.3457C23.1154 9.59496 23.1998 9.89274 23.1832 10.2018C23.232 10.1889 23.2792 10.1749 23.3128 10.1653C23.3354 10.1586 23.3573 10.1523 23.3783 10.1463C23.5152 10.1071 23.6504 10.0815 23.7811 10.0563C23.9329 10.027 24.0765 9.99975 24.2075 9.95455C24.3743 9.89706 24.568 9.77808 24.6122 9.61722C24.6385 9.52184 24.6186 9.39156 24.5531 9.22971C24.5212 9.15061 24.4899 9.09544 24.4604 9.06553C24.4587 9.06852 24.457 9.07152 24.4557 9.07417C24.4012 9.17255 24.3098 9.33739 24.1021 9.39788C23.8465 9.47265 23.563 9.31911 23.4567 9.04892C23.4075 8.92395 23.4022 8.80498 23.3979 8.70926C23.3969 8.68699 23.3959 8.66473 23.3942 8.64246C23.3836 8.50753 23.3174 8.38257 23.244 8.35797C23.234 8.35498 23.2244 8.35365 23.2141 8.35365Z"/>
<path d="M21.7928 12.4422C21.7818 12.4422 21.7705 12.4415 21.7592 12.4405C21.5764 12.4222 21.4435 12.259 21.4618 12.0766C21.5665 11.0347 21.3873 10.3587 20.8014 9.60627C20.3694 9.4052 19.6073 9.36598 19.0436 9.33707C18.917 9.33042 18.7974 9.32444 18.6877 9.31713L18.6262 9.31314C18.3922 9.29852 18.1011 9.28024 17.8535 9.1031C17.6162 8.9336 17.4879 8.64313 17.5099 8.32641C17.5318 8.00968 17.6993 7.74015 17.9579 7.60522C18.0662 7.54839 18.1785 7.51782 18.2776 7.49056C18.3367 7.47428 18.4324 7.44802 18.465 7.42642C18.4654 7.38953 18.4381 7.30179 18.4215 7.24762C18.3703 7.08078 18.2998 6.85246 18.3959 6.61317C18.5322 6.27319 18.9369 6.10834 19.4036 6.2024C19.4448 6.21071 19.4863 6.22001 19.5285 6.22965C19.6738 6.26255 19.8243 6.29678 19.8991 6.25956C19.9353 6.24161 19.9855 6.19143 20.0343 6.14324C20.1384 6.03988 20.2809 5.8983 20.496 5.85177C20.8074 5.78398 21.1414 5.9548 21.3082 6.26687C21.4309 6.49586 21.4442 6.74146 21.4475 6.95383C21.4491 7.07114 21.4525 7.19843 21.4561 7.3317C21.4721 7.94122 21.4913 8.68667 21.381 9.2696C22.0341 10.1364 22.2431 10.9566 22.1235 12.1437C22.1058 12.3145 21.9613 12.4422 21.7928 12.4422ZM19.0121 6.86509C19.0097 6.89899 19.0386 6.99404 19.0566 7.05187C19.1111 7.22901 19.1859 7.47195 19.0622 7.72187C18.924 8.00204 18.6518 8.07682 18.4534 8.13132C18.3803 8.1516 18.3108 8.17054 18.2656 8.19414C18.2151 8.22072 18.1785 8.29052 18.1729 8.3726C18.1672 8.45469 18.1935 8.52914 18.24 8.56237C18.3327 8.62851 18.4953 8.63881 18.6677 8.64945C18.6894 8.65078 18.7113 8.65211 18.7326 8.65377C18.8369 8.66075 18.9539 8.66673 19.0775 8.67338C19.6129 8.70096 20.2494 8.73353 20.7655 8.88641C20.8183 8.41182 20.8034 7.83421 20.7908 7.34865C20.7871 7.21272 20.7838 7.08311 20.7821 6.96313C20.7801 6.82255 20.7738 6.67732 20.7216 6.57994C20.696 6.53241 20.6518 6.50416 20.6346 6.50151C20.608 6.50981 20.5422 6.57495 20.5026 6.6145C20.4249 6.69194 20.3278 6.78832 20.1962 6.85412C19.9087 6.9977 19.6163 6.93123 19.3813 6.87805C19.3444 6.86974 19.3082 6.86143 19.2719 6.85412C19.1467 6.82853 19.0433 6.84648 19.0121 6.86509Z"/>
<path d="M14.4027 15.6157C14.3236 13.653 13.0535 13.0219 12.9994 12.9968C12.8998 12.9513 12.8329 12.8537 12.8203 12.7463C12.8092 12.6373 12.8581 12.5333 12.9467 12.4697C13.0353 12.4061 13.1526 12.398 13.2506 12.4452C13.3182 12.4765 14.9154 13.2449 15.012 15.5998C15.0188 15.7686 14.8885 15.9078 14.7196 15.9122C14.5525 15.9182 14.4095 15.7845 14.4027 15.6157Z"/>
<path d="M13.1024 15.8685C13.0182 15.9585 12.8884 15.9867 12.7739 15.9433C12.6595 15.8999 12.5788 15.7894 12.5738 15.6669C12.5008 13.8565 11.458 13.8075 11.3371 13.809C11.1714 13.8101 11.0317 13.6762 11.0251 13.5107C11.0184 13.3452 11.1487 13.206 11.3141 13.1983C11.3307 13.1979 13.0836 13.182 13.1831 15.651C13.188 15.7321 13.158 15.8091 13.1024 15.8685Z"/>
<path d="M7.72846 15.0587C7.52647 15.0639 7.35596 14.9044 7.34782 14.7025C7.33968 14.5006 7.49699 14.3325 7.69898 14.3272C7.90097 14.3219 8.07148 14.4815 8.07962 14.6834C8.08349 14.7794 8.04921 14.8747 7.98248 14.946C7.91561 15.014 7.82449 15.0562 7.72846 15.0587Z"/>
<path fill-rule="evenodd" clip-rule="evenodd" d="M11.1226 20.9036C7.84328 20.2498 5.44099 17.9076 4.47152 16.8079C4.13418 16.4158 4.1111 15.8433 4.41946 15.4343C5.27756 14.3135 7.42034 11.9234 10.5342 11.0502C11.0762 10.0222 12.5085 8.30497 16.1649 7.8566C16.3497 7.83521 16.5392 7.89156 16.6817 8.01208C16.8275 8.13583 16.9143 8.31579 16.9219 8.50445L17.0512 11.7116C17.9775 12.1579 18.8529 12.6999 19.6657 13.3331C20.2154 12.6627 21.0192 12.2491 21.8918 12.1865L25.549 12.0893C25.7179 12.0849 25.8592 12.2171 25.866 12.3859C25.8701 12.4885 25.9396 14.6651 24.5085 15.7147C26.0211 16.6874 26.1288 18.8647 26.1312 18.9657C26.138 19.1345 26.0077 19.2737 25.8389 19.2781L22.1799 19.3737C21.1368 19.4009 20.2989 18.8016 19.7298 18.2118C18.993 18.8331 18.1147 19.4822 17.2345 19.8739C16.7448 20.0973 16.1531 20.3323 15.5652 20.533C16.0646 20.8387 16.5896 21.0829 17.1309 21.2611C17.2494 21.3 17.3284 21.4125 17.325 21.5373C17.3217 21.6621 17.2368 21.7698 17.1161 21.8025C16.569 21.9497 16.0032 22.035 15.4345 22.0557C13.9402 22.1102 12.4506 21.7126 11.1262 20.9058L11.1226 20.9036ZM4.9277 16.4067C4.78314 16.2332 4.77486 15.9866 4.90528 15.8093C5.96317 14.4232 7.29054 13.267 8.81059 12.4089C9.54416 13.4616 9.96533 14.6997 10.0217 15.9755C10.0682 17.2515 9.74924 18.5073 9.09869 19.5961C7.51272 18.8191 6.09501 17.7346 4.9277 16.4067ZM16.2909 8.47454C16.3047 8.48744 16.3153 8.50373 16.3144 8.52197L16.4319 11.4379C15.1306 10.8954 13.7286 10.6537 12.3296 10.7333C12.0107 10.7565 11.6924 10.7963 11.3765 10.8543C12.0313 9.95086 13.4057 8.81 16.2489 8.46073C16.2638 8.45869 16.2789 8.46326 16.2909 8.47454ZM25.4932 18.6808L22.1588 18.7679C21.3426 18.7909 20.6616 18.3034 20.1894 17.8138C20.5459 17.4881 20.8965 17.141 21.2461 16.7674C21.351 16.6552 21.4543 16.5415 21.559 16.4262L21.5636 16.4211C21.9355 15.9857 21.9093 15.3336 21.4999 14.9219C21.0512 14.483 20.6009 14.0839 20.1518 13.7146C20.5911 13.183 21.2274 12.8516 21.9179 12.7938L25.2524 12.7067C25.2125 13.3605 24.9884 14.8738 23.7893 15.4303L23.1238 15.4477C23.0128 15.4489 22.9124 15.5079 22.86 15.6053C22.8075 15.7028 22.8122 15.8186 22.8724 15.9131C22.9341 16.006 23.0374 16.0612 23.1483 16.0567L23.8139 16.0393C25.0552 16.532 25.4007 18.0305 25.4932 18.6808ZM21.0782 15.3587C21.2546 15.5396 21.2659 15.8209 21.1063 16.0123C19.6065 17.6907 17.8603 19.0362 15.7648 19.8842C14.6664 20.3283 14.4442 20.3427 12.8171 20.4485C12.7507 20.4528 12.682 20.4572 12.6108 20.4619C11.6034 20.4269 10.6104 20.2176 9.67202 19.8396C10.3523 18.6671 10.686 17.3232 10.6343 15.9595C10.5743 14.5943 10.1314 13.269 9.35807 12.1345C10.3046 11.6857 11.3297 11.4187 12.3791 11.3433C15.229 11.1595 18.1542 12.5111 21.0782 15.3587ZM15.4139 21.491C14.5352 21.523 13.6576 21.3856 12.8189 21.0893C13.5628 21.0973 14.3097 21.0214 15.034 20.8647C15.3631 21.0814 15.7037 21.2729 16.0536 21.438C15.8414 21.4655 15.628 21.4832 15.4139 21.491Z"/>
</mask>
<path d="M14.667 29C12.7773 29 10.9437 28.6298 9.21754 27.8996C7.55051 27.1944 6.05329 26.185 4.76746 24.8995C3.48195 23.614 2.47229 22.1168 1.76738 20.4494C1.03722 18.7233 0.666992 16.8897 0.666992 15C0.666992 13.1103 1.03722 11.2767 1.76738 9.55055C2.47262 7.88351 3.48195 6.3863 4.76746 5.10046C6.05296 3.81496 7.55017 2.80529 9.21754 2.10039C10.9437 1.37023 12.7773 1 14.667 1C16.5567 1 18.3902 1.37023 20.1164 2.10039C21.7835 2.80563 23.2807 3.81496 24.5665 5.10046C25.852 6.38597 26.8617 7.88318 27.5666 9.55055C28.2968 11.2767 28.667 13.1103 28.667 15C28.667 16.8897 28.2968 18.7233 27.5666 20.4494C26.8614 22.1165 25.852 23.6137 24.5665 24.8995C23.281 26.185 21.7838 27.1947 20.1164 27.8996C18.3902 28.6298 16.5567 29 14.667 29ZM14.667 1.66469C7.31388 1.66469 1.33168 7.64688 1.33168 15C1.33168 22.3531 7.31388 28.3353 14.667 28.3353C22.0201 28.3353 28.0023 22.3531 28.0023 15C28.0023 7.64688 22.0201 1.66469 14.667 1.66469Z" fill="#203686"/>
<path d="M6.2668 9.79147C6.20399 9.79147 6.14018 9.77353 6.08401 9.7363C5.9308 9.63527 5.88893 9.42888 5.98996 9.27567C7.92221 6.35138 11.1662 4.60557 14.6668 4.60557C14.9868 4.60557 15.3099 4.62019 15.6266 4.64944C15.8094 4.66606 15.944 4.82791 15.9274 5.0107C15.9108 5.19349 15.7489 5.32776 15.5661 5.31147C15.2693 5.28422 14.9666 5.27059 14.6668 5.27059C11.3899 5.27059 8.35359 6.90506 6.54431 9.64258C6.4805 9.73896 6.37448 9.79147 6.2668 9.79147Z" fill="#203686"/>
<path d="M14.9278 25.28C13.7463 25.28 12.5878 25.0819 11.4774 24.6894C11.3043 24.6283 11.2135 24.4385 11.2747 24.2654C11.3358 24.0922 11.5256 24.0015 11.6988 24.0626C12.8706 24.4767 14.1003 24.6595 15.3536 24.606C18.4008 24.4757 21.154 22.9672 22.9077 20.467C23.0131 20.3168 23.2205 20.2802 23.3707 20.3859C23.5209 20.4916 23.5575 20.6986 23.4518 20.8489C22.5555 22.127 21.3633 23.2038 20.0047 23.9636C18.5796 24.7605 17.0243 25.1999 15.3818 25.2704C15.2303 25.2767 15.0787 25.28 14.9278 25.28Z" fill="#203686"/>
<path d="M7.57542 23.4699C6.84458 23.4209 6.16896 23.1045 5.66083 22.5702C5.12407 22.0059 4.83921 21.2663 4.85874 20.4879C4.8824 19.5485 5.36177 18.6729 6.14059 18.1452C6.25993 18.0643 6.41811 18.0699 6.53173 18.1588C6.98874 18.5165 7.47164 18.8407 7.96672 19.1223C8.30618 19.3156 8.65742 19.492 9.01108 19.6473C9.014 19.6485 9.01659 19.6497 9.0195 19.6509C9.48154 19.8541 9.96158 20.0271 10.4463 20.1649C10.5852 20.2045 10.6828 20.3293 10.6874 20.4735C10.6892 20.5262 10.6893 20.5802 10.688 20.6344C10.6685 21.4129 10.3471 22.1371 9.78253 22.6738C9.21828 23.2106 8.47874 23.4951 7.70028 23.4756C7.65872 23.4745 7.61687 23.4727 7.57542 23.4699ZM6.32567 18.8378C5.83567 19.2506 5.53982 19.858 5.52348 20.5045C5.50852 21.1053 5.7284 21.6763 6.14253 22.1121C6.55667 22.5479 7.11596 22.7959 7.71683 22.8112C8.3177 22.8265 8.8887 22.6066 9.32451 22.1921C9.73257 21.8041 9.97628 21.2889 10.0177 20.731C9.59049 20.5991 9.16834 20.442 8.75933 20.2627C8.75674 20.2615 8.75414 20.2606 8.75155 20.2595C8.37457 20.0943 7.99981 19.906 7.63787 19.7002C7.18808 19.4435 6.74748 19.1542 6.32567 18.8378Z" fill="#203686"/>
<path d="M9.95354 22.2419C9.90181 22.2385 9.84991 22.2227 9.80255 22.1939L5.39631 19.497C5.23985 19.4012 5.1906 19.1967 5.28638 19.0399C5.38213 18.8835 5.58695 18.8342 5.74342 18.93L10.1497 21.6269C10.3061 21.7226 10.3554 21.9271 10.2596 22.0839C10.1927 22.193 10.0729 22.2499 9.95354 22.2419Z" fill="#203686"/>
<path d="M8.07928 23.4525C7.90326 23.4724 7.74123 23.3499 7.71389 23.1734L7.1394 19.4847C7.11117 19.3033 7.23542 19.1334 7.41652 19.1052C7.59762 19.077 7.76787 19.2012 7.79607 19.3823L8.37055 23.071C8.39879 23.2524 8.27454 23.4223 8.09344 23.4505C8.08886 23.4514 8.0839 23.4519 8.07928 23.4525Z" fill="#203686"/>
<path d="M5.48342 22.1279C5.37366 22.1206 5.26987 22.059 5.21353 21.9553C5.12574 21.7942 5.18523 21.5923 5.34633 21.5045L8.72607 19.6625C8.88717 19.5747 9.08904 19.6342 9.17683 19.7953C9.26463 19.9564 9.20513 20.1583 9.04403 20.2461L5.6643 22.0881C5.60689 22.1195 5.54411 22.132 5.48342 22.1279Z" fill="#203686"/>
<path d="M22.9848 10.9037C22.8492 10.9037 22.7215 10.8698 22.6192 10.7718C22.5477 10.7033 22.4374 10.5494 22.5019 10.2869C22.557 10.0629 22.4796 9.79038 22.4051 9.52683C22.3001 9.15626 22.2147 8.79235 22.3214 8.41547C22.3965 8.15026 22.5853 7.91562 22.8269 7.788C23.0293 7.68132 23.2523 7.65972 23.455 7.72818C23.7684 7.83353 23.9961 8.14062 24.0486 8.52049C24.2566 8.34302 24.5787 8.33604 24.8226 8.50553C25.0147 8.63913 25.1121 8.84054 25.1686 8.98045C25.2916 9.28455 25.3191 9.55009 25.2527 9.7927C25.156 10.1463 24.8539 10.4341 24.4238 10.5827C24.248 10.6435 24.0738 10.6767 23.9053 10.709C23.7834 10.7322 23.6684 10.7542 23.5597 10.7854C23.5401 10.7911 23.5195 10.797 23.4982 10.8034C23.3377 10.8502 23.1549 10.9037 22.9848 10.9037ZM23.2141 8.35365C23.1911 8.35365 23.1656 8.3613 23.1373 8.37592C23.0572 8.41813 22.9864 8.50686 22.9612 8.59626C22.9017 8.8063 22.9638 9.05988 23.0449 9.3457C23.1154 9.59496 23.1998 9.89274 23.1832 10.2018C23.232 10.1889 23.2792 10.1749 23.3128 10.1653C23.3354 10.1586 23.3573 10.1523 23.3783 10.1463C23.5152 10.1071 23.6504 10.0815 23.7811 10.0563C23.9329 10.027 24.0765 9.99975 24.2075 9.95455C24.3743 9.89706 24.568 9.77808 24.6122 9.61722C24.6385 9.52184 24.6186 9.39156 24.5531 9.22971C24.5212 9.15061 24.4899 9.09544 24.4604 9.06553C24.4587 9.06852 24.457 9.07152 24.4557 9.07417C24.4012 9.17255 24.3098 9.33739 24.1021 9.39788C23.8465 9.47265 23.563 9.31911 23.4567 9.04892C23.4075 8.92395 23.4022 8.80498 23.3979 8.70926C23.3969 8.68699 23.3959 8.66473 23.3942 8.64246C23.3836 8.50753 23.3174 8.38257 23.244 8.35797C23.234 8.35498 23.2244 8.35365 23.2141 8.35365Z" fill="#203686"/>
<path d="M21.7928 12.4422C21.7818 12.4422 21.7705 12.4415 21.7592 12.4405C21.5764 12.4222 21.4435 12.259 21.4618 12.0766C21.5665 11.0347 21.3873 10.3587 20.8014 9.60627C20.3694 9.4052 19.6073 9.36598 19.0436 9.33707C18.917 9.33042 18.7974 9.32444 18.6877 9.31713L18.6262 9.31314C18.3922 9.29852 18.1011 9.28024 17.8535 9.1031C17.6162 8.9336 17.4879 8.64313 17.5099 8.32641C17.5318 8.00968 17.6993 7.74015 17.9579 7.60522C18.0662 7.54839 18.1785 7.51782 18.2776 7.49056C18.3367 7.47428 18.4324 7.44802 18.465 7.42642C18.4654 7.38953 18.4381 7.30179 18.4215 7.24762C18.3703 7.08078 18.2998 6.85246 18.3959 6.61317C18.5322 6.27319 18.9369 6.10834 19.4036 6.2024C19.4448 6.21071 19.4863 6.22001 19.5285 6.22965C19.6738 6.26255 19.8243 6.29678 19.8991 6.25956C19.9353 6.24161 19.9855 6.19143 20.0343 6.14324C20.1384 6.03988 20.2809 5.8983 20.496 5.85177C20.8074 5.78398 21.1414 5.9548 21.3082 6.26687C21.4309 6.49586 21.4442 6.74146 21.4475 6.95383C21.4491 7.07114 21.4525 7.19843 21.4561 7.3317C21.4721 7.94122 21.4913 8.68667 21.381 9.2696C22.0341 10.1364 22.2431 10.9566 22.1235 12.1437C22.1058 12.3145 21.9613 12.4422 21.7928 12.4422ZM19.0121 6.86509C19.0097 6.89899 19.0386 6.99404 19.0566 7.05187C19.1111 7.22901 19.1859 7.47195 19.0622 7.72187C18.924 8.00204 18.6518 8.07682 18.4534 8.13132C18.3803 8.1516 18.3108 8.17054 18.2656 8.19414C18.2151 8.22072 18.1785 8.29052 18.1729 8.3726C18.1672 8.45469 18.1935 8.52914 18.24 8.56237C18.3327 8.62851 18.4953 8.63881 18.6677 8.64945C18.6894 8.65078 18.7113 8.65211 18.7326 8.65377C18.8369 8.66075 18.9539 8.66673 19.0775 8.67338C19.6129 8.70096 20.2494 8.73353 20.7655 8.88641C20.8183 8.41182 20.8034 7.83421 20.7908 7.34865C20.7871 7.21272 20.7838 7.08311 20.7821 6.96313C20.7801 6.82255 20.7738 6.67732 20.7216 6.57994C20.696 6.53241 20.6518 6.50416 20.6346 6.50151C20.608 6.50981 20.5422 6.57495 20.5026 6.6145C20.4249 6.69194 20.3278 6.78832 20.1962 6.85412C19.9087 6.9977 19.6163 6.93123 19.3813 6.87805C19.3444 6.86974 19.3082 6.86143 19.2719 6.85412C19.1467 6.82853 19.0433 6.84648 19.0121 6.86509Z" fill="#203686"/>
<path d="M14.4027 15.6157C14.3236 13.653 13.0535 13.0219 12.9994 12.9968C12.8998 12.9513 12.8329 12.8537 12.8203 12.7463C12.8092 12.6373 12.8581 12.5333 12.9467 12.4697C13.0353 12.4061 13.1526 12.398 13.2506 12.4452C13.3182 12.4765 14.9154 13.2449 15.012 15.5998C15.0188 15.7686 14.8885 15.9078 14.7196 15.9122C14.5525 15.9182 14.4095 15.7845 14.4027 15.6157Z" fill="#203686"/>
<path d="M13.1024 15.8685C13.0182 15.9585 12.8884 15.9867 12.7739 15.9433C12.6595 15.8999 12.5788 15.7894 12.5738 15.6669C12.5008 13.8565 11.458 13.8075 11.3371 13.809C11.1714 13.8101 11.0317 13.6762 11.0251 13.5107C11.0184 13.3452 11.1487 13.206 11.3141 13.1983C11.3307 13.1979 13.0836 13.182 13.1831 15.651C13.188 15.7321 13.158 15.8091 13.1024 15.8685Z" fill="#203686"/>
<path d="M7.72846 15.0587C7.52647 15.0639 7.35596 14.9044 7.34782 14.7025C7.33968 14.5006 7.49699 14.3325 7.69898 14.3272C7.90097 14.3219 8.07148 14.4815 8.07962 14.6834C8.08349 14.7794 8.04921 14.8747 7.98248 14.946C7.91561 15.014 7.82449 15.0562 7.72846 15.0587Z" fill="#203686"/>
<path fill-rule="evenodd" clip-rule="evenodd" d="M11.1226 20.9036C7.84328 20.2498 5.44099 17.9076 4.47152 16.8079C4.13418 16.4158 4.1111 15.8433 4.41946 15.4343C5.27756 14.3135 7.42034 11.9234 10.5342 11.0502C11.0762 10.0222 12.5085 8.30497 16.1649 7.8566C16.3497 7.83521 16.5392 7.89156 16.6817 8.01208C16.8275 8.13583 16.9143 8.31579 16.9219 8.50445L17.0512 11.7116C17.9775 12.1579 18.8529 12.6999 19.6657 13.3331C20.2154 12.6627 21.0192 12.2491 21.8918 12.1865L25.549 12.0893C25.7179 12.0849 25.8592 12.2171 25.866 12.3859C25.8701 12.4885 25.9396 14.6651 24.5085 15.7147C26.0211 16.6874 26.1288 18.8647 26.1312 18.9657C26.138 19.1345 26.0077 19.2737 25.8389 19.2781L22.1799 19.3737C21.1368 19.4009 20.2989 18.8016 19.7298 18.2118C18.993 18.8331 18.1147 19.4822 17.2345 19.8739C16.7448 20.0973 16.1531 20.3323 15.5652 20.533C16.0646 20.8387 16.5896 21.0829 17.1309 21.2611C17.2494 21.3 17.3284 21.4125 17.325 21.5373C17.3217 21.6621 17.2368 21.7698 17.1161 21.8025C16.569 21.9497 16.0032 22.035 15.4345 22.0557C13.9402 22.1102 12.4506 21.7126 11.1262 20.9058L11.1226 20.9036ZM4.9277 16.4067C4.78314 16.2332 4.77486 15.9866 4.90528 15.8093C5.96317 14.4232 7.29054 13.267 8.81059 12.4089C9.54416 13.4616 9.96533 14.6997 10.0217 15.9755C10.0682 17.2515 9.74924 18.5073 9.09869 19.5961C7.51272 18.8191 6.09501 17.7346 4.9277 16.4067ZM16.2909 8.47454C16.3047 8.48744 16.3153 8.50373 16.3144 8.52197L16.4319 11.4379C15.1306 10.8954 13.7286 10.6537 12.3296 10.7333C12.0107 10.7565 11.6924 10.7963 11.3765 10.8543C12.0313 9.95086 13.4057 8.81 16.2489 8.46073C16.2638 8.45869 16.2789 8.46326 16.2909 8.47454ZM25.4932 18.6808L22.1588 18.7679C21.3426 18.7909 20.6616 18.3034 20.1894 17.8138C20.5459 17.4881 20.8965 17.141 21.2461 16.7674C21.351 16.6552 21.4543 16.5415 21.559 16.4262L21.5636 16.4211C21.9355 15.9857 21.9093 15.3336 21.4999 14.9219C21.0512 14.483 20.6009 14.0839 20.1518 13.7146C20.5911 13.183 21.2274 12.8516 21.9179 12.7938L25.2524 12.7067C25.2125 13.3605 24.9884 14.8738 23.7893 15.4303L23.1238 15.4477C23.0128 15.4489 22.9124 15.5079 22.86 15.6053C22.8075 15.7028 22.8122 15.8186 22.8724 15.9131C22.9341 16.006 23.0374 16.0612 23.1483 16.0567L23.8139 16.0393C25.0552 16.532 25.4007 18.0305 25.4932 18.6808ZM21.0782 15.3587C21.2546 15.5396 21.2659 15.8209 21.1063 16.0123C19.6065 17.6907 17.8603 19.0362 15.7648 19.8842C14.6664 20.3283 14.4442 20.3427 12.8171 20.4485C12.7507 20.4528 12.682 20.4572 12.6108 20.4619C11.6034 20.4269 10.6104 20.2176 9.67202 19.8396C10.3523 18.6671 10.686 17.3232 10.6343 15.9595C10.5743 14.5943 10.1314 13.269 9.35807 12.1345C10.3046 11.6857 11.3297 11.4187 12.3791 11.3433C15.229 11.1595 18.1542 12.5111 21.0782 15.3587ZM15.4139 21.491C14.5352 21.523 13.6576 21.3856 12.8189 21.0893C13.5628 21.0973 14.3097 21.0214 15.034 20.8647C15.3631 21.0814 15.7037 21.2729 16.0536 21.438C15.8414 21.4655 15.628 21.4832 15.4139 21.491Z" fill="#203686"/>
<path d="M14.667 29C12.7773 29 10.9437 28.6298 9.21754 27.8996C7.55051 27.1944 6.05329 26.185 4.76746 24.8995C3.48195 23.614 2.47229 22.1168 1.76738 20.4494C1.03722 18.7233 0.666992 16.8897 0.666992 15C0.666992 13.1103 1.03722 11.2767 1.76738 9.55055C2.47262 7.88351 3.48195 6.3863 4.76746 5.10046C6.05296 3.81496 7.55017 2.80529 9.21754 2.10039C10.9437 1.37023 12.7773 1 14.667 1C16.5567 1 18.3902 1.37023 20.1164 2.10039C21.7835 2.80563 23.2807 3.81496 24.5665 5.10046C25.852 6.38597 26.8617 7.88318 27.5666 9.55055C28.2968 11.2767 28.667 13.1103 28.667 15C28.667 16.8897 28.2968 18.7233 27.5666 20.4494C26.8614 22.1165 25.852 23.6137 24.5665 24.8995C23.281 26.185 21.7838 27.1947 20.1164 27.8996C18.3902 28.6298 16.5567 29 14.667 29ZM14.667 1.66469C7.31388 1.66469 1.33168 7.64688 1.33168 15C1.33168 22.3531 7.31388 28.3353 14.667 28.3353C22.0201 28.3353 28.0023 22.3531 28.0023 15C28.0023 7.64688 22.0201 1.66469 14.667 1.66469Z" stroke="#203686" stroke-width="0.2" mask="url(#path-1-outside-1_2710_95924)"/>
<path d="M6.2668 9.79147C6.20399 9.79147 6.14018 9.77353 6.08401 9.7363C5.9308 9.63527 5.88893 9.42888 5.98996 9.27567C7.92221 6.35138 11.1662 4.60557 14.6668 4.60557C14.9868 4.60557 15.3099 4.62019 15.6266 4.64944C15.8094 4.66606 15.944 4.82791 15.9274 5.0107C15.9108 5.19349 15.7489 5.32776 15.5661 5.31147C15.2693 5.28422 14.9666 5.27059 14.6668 5.27059C11.3899 5.27059 8.35359 6.90506 6.54431 9.64258C6.4805 9.73896 6.37448 9.79147 6.2668 9.79147Z" stroke="#203686" stroke-width="0.2" mask="url(#path-1-outside-1_2710_95924)"/>
<path d="M14.9278 25.28C13.7463 25.28 12.5878 25.0819 11.4774 24.6894C11.3043 24.6283 11.2135 24.4385 11.2747 24.2654C11.3358 24.0922 11.5256 24.0015 11.6988 24.0626C12.8706 24.4767 14.1003 24.6595 15.3536 24.606C18.4008 24.4757 21.154 22.9672 22.9077 20.467C23.0131 20.3168 23.2205 20.2802 23.3707 20.3859C23.5209 20.4916 23.5575 20.6986 23.4518 20.8489C22.5555 22.127 21.3633 23.2038 20.0047 23.9636C18.5796 24.7605 17.0243 25.1999 15.3818 25.2704C15.2303 25.2767 15.0787 25.28 14.9278 25.28Z" stroke="#203686" stroke-width="0.2" mask="url(#path-1-outside-1_2710_95924)"/>
<path d="M7.57542 23.4699C6.84458 23.4209 6.16896 23.1045 5.66083 22.5702C5.12407 22.0059 4.83921 21.2663 4.85874 20.4879C4.8824 19.5485 5.36177 18.6729 6.14059 18.1452C6.25993 18.0643 6.41811 18.0699 6.53173 18.1588C6.98874 18.5165 7.47164 18.8407 7.96672 19.1223C8.30618 19.3156 8.65742 19.492 9.01108 19.6473C9.014 19.6485 9.01659 19.6497 9.0195 19.6509C9.48154 19.8541 9.96158 20.0271 10.4463 20.1649C10.5852 20.2045 10.6828 20.3293 10.6874 20.4735C10.6892 20.5262 10.6893 20.5802 10.688 20.6344C10.6685 21.4129 10.3471 22.1371 9.78253 22.6738C9.21828 23.2106 8.47874 23.4951 7.70028 23.4756C7.65872 23.4745 7.61687 23.4727 7.57542 23.4699ZM6.32567 18.8378C5.83567 19.2506 5.53982 19.858 5.52348 20.5045C5.50852 21.1053 5.7284 21.6763 6.14253 22.1121C6.55667 22.5479 7.11596 22.7959 7.71683 22.8112C8.3177 22.8265 8.8887 22.6066 9.32451 22.1921C9.73257 21.8041 9.97628 21.2889 10.0177 20.731C9.59049 20.5991 9.16834 20.442 8.75933 20.2627C8.75674 20.2615 8.75414 20.2606 8.75155 20.2595C8.37457 20.0943 7.99981 19.906 7.63787 19.7002C7.18808 19.4435 6.74748 19.1542 6.32567 18.8378Z" stroke="#203686" stroke-width="0.2" mask="url(#path-1-outside-1_2710_95924)"/>
<path d="M9.95354 22.2419C9.90181 22.2385 9.84991 22.2227 9.80255 22.1939L5.39631 19.497C5.23985 19.4012 5.1906 19.1967 5.28638 19.0399C5.38213 18.8835 5.58695 18.8342 5.74342 18.93L10.1497 21.6269C10.3061 21.7226 10.3554 21.9271 10.2596 22.0839C10.1927 22.193 10.0729 22.2499 9.95354 22.2419Z" stroke="#203686" stroke-width="0.2" mask="url(#path-1-outside-1_2710_95924)"/>
<path d="M8.07928 23.4525C7.90326 23.4724 7.74123 23.3499 7.71389 23.1734L7.1394 19.4847C7.11117 19.3033 7.23542 19.1334 7.41652 19.1052C7.59762 19.077 7.76787 19.2012 7.79607 19.3823L8.37055 23.071C8.39879 23.2524 8.27454 23.4223 8.09344 23.4505C8.08886 23.4514 8.0839 23.4519 8.07928 23.4525Z" stroke="#203686" stroke-width="0.2" mask="url(#path-1-outside-1_2710_95924)"/>
<path d="M5.48342 22.1279C5.37366 22.1206 5.26987 22.059 5.21353 21.9553C5.12574 21.7942 5.18523 21.5923 5.34633 21.5045L8.72607 19.6625C8.88717 19.5747 9.08904 19.6342 9.17683 19.7953C9.26463 19.9564 9.20513 20.1583 9.04403 20.2461L5.6643 22.0881C5.60689 22.1195 5.54411 22.132 5.48342 22.1279Z" stroke="#203686" stroke-width="0.2" mask="url(#path-1-outside-1_2710_95924)"/>
<path d="M22.9848 10.9037C22.8492 10.9037 22.7215 10.8698 22.6192 10.7718C22.5477 10.7033 22.4374 10.5494 22.5019 10.2869C22.557 10.0629 22.4796 9.79038 22.4051 9.52683C22.3001 9.15626 22.2147 8.79235 22.3214 8.41547C22.3965 8.15026 22.5853 7.91562 22.8269 7.788C23.0293 7.68132 23.2523 7.65972 23.455 7.72818C23.7684 7.83353 23.9961 8.14062 24.0486 8.52049C24.2566 8.34302 24.5787 8.33604 24.8226 8.50553C25.0147 8.63913 25.1121 8.84054 25.1686 8.98045C25.2916 9.28455 25.3191 9.55009 25.2527 9.7927C25.156 10.1463 24.8539 10.4341 24.4238 10.5827C24.248 10.6435 24.0738 10.6767 23.9053 10.709C23.7834 10.7322 23.6684 10.7542 23.5597 10.7854C23.5401 10.7911 23.5195 10.797 23.4982 10.8034C23.3377 10.8502 23.1549 10.9037 22.9848 10.9037ZM23.2141 8.35365C23.1911 8.35365 23.1656 8.3613 23.1373 8.37592C23.0572 8.41813 22.9864 8.50686 22.9612 8.59626C22.9017 8.8063 22.9638 9.05988 23.0449 9.3457C23.1154 9.59496 23.1998 9.89274 23.1832 10.2018C23.232 10.1889 23.2792 10.1749 23.3128 10.1653C23.3354 10.1586 23.3573 10.1523 23.3783 10.1463C23.5152 10.1071 23.6504 10.0815 23.7811 10.0563C23.9329 10.027 24.0765 9.99975 24.2075 9.95455C24.3743 9.89706 24.568 9.77808 24.6122 9.61722C24.6385 9.52184 24.6186 9.39156 24.5531 9.22971C24.5212 9.15061 24.4899 9.09544 24.4604 9.06553C24.4587 9.06852 24.457 9.07152 24.4557 9.07417C24.4012 9.17255 24.3098 9.33739 24.1021 9.39788C23.8465 9.47265 23.563 9.31911 23.4567 9.04892C23.4075 8.92395 23.4022 8.80498 23.3979 8.70926C23.3969 8.68699 23.3959 8.66473 23.3942 8.64246C23.3836 8.50753 23.3174 8.38257 23.244 8.35797C23.234 8.35498 23.2244 8.35365 23.2141 8.35365Z" stroke="#203686" stroke-width="0.2" mask="url(#path-1-outside-1_2710_95924)"/>
<path d="M21.7928 12.4422C21.7818 12.4422 21.7705 12.4415 21.7592 12.4405C21.5764 12.4222 21.4435 12.259 21.4618 12.0766C21.5665 11.0347 21.3873 10.3587 20.8014 9.60627C20.3694 9.4052 19.6073 9.36598 19.0436 9.33707C18.917 9.33042 18.7974 9.32444 18.6877 9.31713L18.6262 9.31314C18.3922 9.29852 18.1011 9.28024 17.8535 9.1031C17.6162 8.9336 17.4879 8.64313 17.5099 8.32641C17.5318 8.00968 17.6993 7.74015 17.9579 7.60522C18.0662 7.54839 18.1785 7.51782 18.2776 7.49056C18.3367 7.47428 18.4324 7.44802 18.465 7.42642C18.4654 7.38953 18.4381 7.30179 18.4215 7.24762C18.3703 7.08078 18.2998 6.85246 18.3959 6.61317C18.5322 6.27319 18.9369 6.10834 19.4036 6.2024C19.4448 6.21071 19.4863 6.22001 19.5285 6.22965C19.6738 6.26255 19.8243 6.29678 19.8991 6.25956C19.9353 6.24161 19.9855 6.19143 20.0343 6.14324C20.1384 6.03988 20.2809 5.8983 20.496 5.85177C20.8074 5.78398 21.1414 5.9548 21.3082 6.26687C21.4309 6.49586 21.4442 6.74146 21.4475 6.95383C21.4491 7.07114 21.4525 7.19843 21.4561 7.3317C21.4721 7.94122 21.4913 8.68667 21.381 9.2696C22.0341 10.1364 22.2431 10.9566 22.1235 12.1437C22.1058 12.3145 21.9613 12.4422 21.7928 12.4422ZM19.0121 6.86509C19.0097 6.89899 19.0386 6.99404 19.0566 7.05187C19.1111 7.22901 19.1859 7.47195 19.0622 7.72187C18.924 8.00204 18.6518 8.07682 18.4534 8.13132C18.3803 8.1516 18.3108 8.17054 18.2656 8.19414C18.2151 8.22072 18.1785 8.29052 18.1729 8.3726C18.1672 8.45469 18.1935 8.52914 18.24 8.56237C18.3327 8.62851 18.4953 8.63881 18.6677 8.64945C18.6894 8.65078 18.7113 8.65211 18.7326 8.65377C18.8369 8.66075 18.9539 8.66673 19.0775 8.67338C19.6129 8.70096 20.2494 8.73353 20.7655 8.88641C20.8183 8.41182 20.8034 7.83421 20.7908 7.34865C20.7871 7.21272 20.7838 7.08311 20.7821 6.96313C20.7801 6.82255 20.7738 6.67732 20.7216 6.57994C20.696 6.53241 20.6518 6.50416 20.6346 6.50151C20.608 6.50981 20.5422 6.57495 20.5026 6.6145C20.4249 6.69194 20.3278 6.78832 20.1962 6.85412C19.9087 6.9977 19.6163 6.93123 19.3813 6.87805C19.3444 6.86974 19.3082 6.86143 19.2719 6.85412C19.1467 6.82853 19.0433 6.84648 19.0121 6.86509Z" stroke="#203686" stroke-width="0.2" mask="url(#path-1-outside-1_2710_95924)"/>
<path d="M14.4027 15.6157C14.3236 13.653 13.0535 13.0219 12.9994 12.9968C12.8998 12.9513 12.8329 12.8537 12.8203 12.7463C12.8092 12.6373 12.8581 12.5333 12.9467 12.4697C13.0353 12.4061 13.1526 12.398 13.2506 12.4452C13.3182 12.4765 14.9154 13.2449 15.012 15.5998C15.0188 15.7686 14.8885 15.9078 14.7196 15.9122C14.5525 15.9182 14.4095 15.7845 14.4027 15.6157Z" stroke="#203686" stroke-width="0.2" mask="url(#path-1-outside-1_2710_95924)"/>
<path d="M13.1024 15.8685C13.0182 15.9585 12.8884 15.9867 12.7739 15.9433C12.6595 15.8999 12.5788 15.7894 12.5738 15.6669C12.5008 13.8565 11.458 13.8075 11.3371 13.809C11.1714 13.8101 11.0317 13.6762 11.0251 13.5107C11.0184 13.3452 11.1487 13.206 11.3141 13.1983C11.3307 13.1979 13.0836 13.182 13.1831 15.651C13.188 15.7321 13.158 15.8091 13.1024 15.8685Z" stroke="#203686" stroke-width="0.2" mask="url(#path-1-outside-1_2710_95924)"/>
<path d="M7.72846 15.0587C7.52647 15.0639 7.35596 14.9044 7.34782 14.7025C7.33968 14.5006 7.49699 14.3325 7.69898 14.3272C7.90097 14.3219 8.07148 14.4815 8.07962 14.6834C8.08349 14.7794 8.04921 14.8747 7.98248 14.946C7.91561 15.014 7.82449 15.0562 7.72846 15.0587Z" stroke="#203686" stroke-width="0.2" mask="url(#path-1-outside-1_2710_95924)"/>
<path fill-rule="evenodd" clip-rule="evenodd" d="M11.1226 20.9036C7.84328 20.2498 5.44099 17.9076 4.47152 16.8079C4.13418 16.4158 4.1111 15.8433 4.41946 15.4343C5.27756 14.3135 7.42034 11.9234 10.5342 11.0502C11.0762 10.0222 12.5085 8.30497 16.1649 7.8566C16.3497 7.83521 16.5392 7.89156 16.6817 8.01208C16.8275 8.13583 16.9143 8.31579 16.9219 8.50445L17.0512 11.7116C17.9775 12.1579 18.8529 12.6999 19.6657 13.3331C20.2154 12.6627 21.0192 12.2491 21.8918 12.1865L25.549 12.0893C25.7179 12.0849 25.8592 12.2171 25.866 12.3859C25.8701 12.4885 25.9396 14.6651 24.5085 15.7147C26.0211 16.6874 26.1288 18.8647 26.1312 18.9657C26.138 19.1345 26.0077 19.2737 25.8389 19.2781L22.1799 19.3737C21.1368 19.4009 20.2989 18.8016 19.7298 18.2118C18.993 18.8331 18.1147 19.4822 17.2345 19.8739C16.7448 20.0973 16.1531 20.3323 15.5652 20.533C16.0646 20.8387 16.5896 21.0829 17.1309 21.2611C17.2494 21.3 17.3284 21.4125 17.325 21.5373C17.3217 21.6621 17.2368 21.7698 17.1161 21.8025C16.569 21.9497 16.0032 22.035 15.4345 22.0557C13.9402 22.1102 12.4506 21.7126 11.1262 20.9058L11.1226 20.9036ZM4.9277 16.4067C4.78314 16.2332 4.77486 15.9866 4.90528 15.8093C5.96317 14.4232 7.29054 13.267 8.81059 12.4089C9.54416 13.4616 9.96533 14.6997 10.0217 15.9755C10.0682 17.2515 9.74924 18.5073 9.09869 19.5961C7.51272 18.8191 6.09501 17.7346 4.9277 16.4067ZM16.2909 8.47454C16.3047 8.48744 16.3153 8.50373 16.3144 8.52197L16.4319 11.4379C15.1306 10.8954 13.7286 10.6537 12.3296 10.7333C12.0107 10.7565 11.6924 10.7963 11.3765 10.8543C12.0313 9.95086 13.4057 8.81 16.2489 8.46073C16.2638 8.45869 16.2789 8.46326 16.2909 8.47454ZM25.4932 18.6808L22.1588 18.7679C21.3426 18.7909 20.6616 18.3034 20.1894 17.8138C20.5459 17.4881 20.8965 17.141 21.2461 16.7674C21.351 16.6552 21.4543 16.5415 21.559 16.4262L21.5636 16.4211C21.9355 15.9857 21.9093 15.3336 21.4999 14.9219C21.0512 14.483 20.6009 14.0839 20.1518 13.7146C20.5911 13.183 21.2274 12.8516 21.9179 12.7938L25.2524 12.7067C25.2125 13.3605 24.9884 14.8738 23.7893 15.4303L23.1238 15.4477C23.0128 15.4489 22.9124 15.5079 22.86 15.6053C22.8075 15.7028 22.8122 15.8186 22.8724 15.9131C22.9341 16.006 23.0374 16.0612 23.1483 16.0567L23.8139 16.0393C25.0552 16.532 25.4007 18.0305 25.4932 18.6808ZM21.0782 15.3587C21.2546 15.5396 21.2659 15.8209 21.1063 16.0123C19.6065 17.6907 17.8603 19.0362 15.7648 19.8842C14.6664 20.3283 14.4442 20.3427 12.8171 20.4485C12.7507 20.4528 12.682 20.4572 12.6108 20.4619C11.6034 20.4269 10.6104 20.2176 9.67202 19.8396C10.3523 18.6671 10.686 17.3232 10.6343 15.9595C10.5743 14.5943 10.1314 13.269 9.35807 12.1345C10.3046 11.6857 11.3297 11.4187 12.3791 11.3433C15.229 11.1595 18.1542 12.5111 21.0782 15.3587ZM15.4139 21.491C14.5352 21.523 13.6576 21.3856 12.8189 21.0893C13.5628 21.0973 14.3097 21.0214 15.034 20.8647C15.3631 21.0814 15.7037 21.2729 16.0536 21.438C15.8414 21.4655 15.628 21.4832 15.4139 21.491Z" stroke="#203686" stroke-width="0.2" mask="url(#path-1-outside-1_2710_95924)"/>
</svg>
