<svg width="17" height="17" viewBox="0 0 17 17" fill="none" xmlns="http://www.w3.org/2000/svg">
<path fill-rule="evenodd" clip-rule="evenodd" d="M11.7111 0H5.28889C2.36111 0 0 2.36111 0 5.28889V11.7111C0 14.6389 2.36111 17 5.28889 17H11.7111C14.6389 17 17 14.6389 17 11.7111V5.28889C17 2.36111 14.6389 0 11.7111 0ZM8.49896 4.24896C6.13785 4.24896 4.24896 6.13785 4.24896 8.49896C4.24896 10.8601 6.13785 12.749 8.49896 12.749C10.8601 12.749 12.749 10.8601 12.749 8.49896C12.749 6.13785 10.8601 4.24896 8.49896 4.24896ZM8.49896 11.1434C6.98785 11.1434 5.85452 9.91563 5.85452 8.49896C5.85452 7.0823 7.0823 5.85452 8.49896 5.85452C9.91563 5.85452 11.1434 7.0823 11.1434 8.49896C11.1434 9.91563 10.0101 11.1434 8.49896 11.1434ZM13.8125 3.71875C13.8125 4.01215 13.5747 4.25 13.2812 4.25C12.9878 4.25 12.75 4.01215 12.75 3.71875C12.75 3.42535 12.9878 3.1875 13.2812 3.1875C13.5747 3.1875 13.8125 3.42535 13.8125 3.71875Z" fill="#203686"/>
</svg>
