<svg width="26" height="26" viewBox="0 0 26 26" fill="none" xmlns="http://www.w3.org/2000/svg">
<path d="M3.03442 11.0895C3.08114 11.2331 3.15594 11.366 3.25453 11.4806C3.35311 11.5953 3.47351 11.6893 3.60879 11.7574L4.15606 12.034L4.52574 12.2209L3.54636 12.843C3.49808 12.8724 3.45615 12.911 3.42304 12.9567C3.38993 13.0023 3.3663 13.0541 3.35353 13.109C3.34076 13.1639 3.33912 13.2207 3.34869 13.2762C3.35825 13.3318 3.37885 13.3848 3.40926 13.4323C3.43967 13.4798 3.47929 13.5208 3.5258 13.5529C3.57231 13.5849 3.62477 13.6074 3.68012 13.619C3.73547 13.6307 3.79259 13.6312 3.84814 13.6205C3.90369 13.6099 3.95655 13.5884 4.00363 13.5571L5.40689 12.6662L7.86647 13.9103C8.02788 13.9923 8.20642 14.0353 8.38761 14.0356C8.50973 14.0354 8.63105 14.016 8.74714 13.9783C8.89158 13.9319 9.02535 13.8575 9.14072 13.7593C9.25608 13.6612 9.35076 13.5412 9.41925 13.4063L11.2628 9.79233C11.3321 9.6567 11.3734 9.50869 11.3846 9.35696C11.3957 9.20522 11.3764 9.0528 11.3277 8.90859L14.5731 6.84766L21.8149 4.93272C21.8689 4.91846 21.9196 4.89373 21.964 4.85996C22.0084 4.8262 22.0457 4.78405 22.0738 4.73593C22.1018 4.6878 22.1201 4.63465 22.1275 4.57949C22.1349 4.52434 22.1314 4.46827 22.1171 4.41448C22.1027 4.36069 22.0779 4.31024 22.044 4.26601C22.0101 4.22178 21.9678 4.18463 21.9194 4.15669C21.8711 4.12874 21.8177 4.11055 21.7624 4.10315C21.707 4.09575 21.6507 4.09929 21.5966 4.11356L16.934 5.34617L21.1994 2.63905C21.2947 2.57866 21.362 2.48306 21.3865 2.37326C21.411 2.26347 21.3907 2.14847 21.33 2.05358C21.2694 1.95869 21.1734 1.89168 21.0631 1.86728C20.9529 1.84288 20.8374 1.8631 20.7421 1.92348L14.2247 6.06029L9.10812 7.41385L6.49757 6.09354C6.36248 6.02516 6.21519 5.98395 6.0641 5.97228C5.91302 5.9606 5.7611 5.97868 5.61704 6.02549C5.47298 6.0723 5.33958 6.14691 5.22449 6.24507C5.10939 6.34323 5.01484 6.46301 4.94624 6.59757L3.10264 10.2116C3.03339 10.3461 2.99169 10.493 2.97998 10.6437C2.96826 10.7944 2.98677 10.946 3.03442 11.0895ZM4.92156 11.4707L7.04 7.31699L9.49909 8.56068L9.12021 9.3042L5.35996 11.6923L4.92156 11.4707ZM8.36245 10.7903L7.38065 12.7144L6.24014 12.1361L8.36245 10.7903ZM8.65956 13.0228C8.64156 13.0581 8.61674 13.0896 8.58651 13.1154C8.55629 13.1412 8.52126 13.1608 8.48342 13.1731C8.44558 13.1854 8.40568 13.1902 8.36599 13.1871C8.3263 13.184 8.28761 13.1732 8.25213 13.1553L8.13938 13.0979L9.77345 9.894L10.4867 9.44105L8.65956 13.0228ZM11.8629 7.56274L10.7717 8.25566L10.7557 8.24651L10.2651 7.99835L10.2506 7.99064L11.8629 7.56274ZM3.86234 10.5985L5.70593 6.98451C5.72398 6.94913 5.74885 6.91764 5.77911 6.89184C5.80938 6.86604 5.84445 6.84642 5.88233 6.83412C5.92021 6.82181 5.96015 6.81706 5.99987 6.82013C6.0396 6.82319 6.07833 6.83402 6.11385 6.85199L6.28175 6.9368L4.16332 11.0905L3.99541 11.0052C3.9599 10.9873 3.92829 10.9625 3.90239 10.9324C3.87648 10.9024 3.85679 10.8675 3.84443 10.8298C3.83207 10.7921 3.82729 10.7524 3.83036 10.7128C3.83344 10.6733 3.8443 10.6348 3.86234 10.5995V10.5985Z" fill="#203686"/>
<path d="M13.7704 22.431H12.2287C12.1717 22.4291 12.1149 22.4386 12.0616 22.4591C12.0084 22.4795 11.9598 22.5103 11.9188 22.5498C11.8777 22.5893 11.8451 22.6366 11.8228 22.689C11.8005 22.7413 11.7891 22.7975 11.7891 22.8543C11.7891 22.9112 11.8005 22.9674 11.8228 23.0197C11.8451 23.072 11.8777 23.1194 11.9188 23.1589C11.9598 23.1984 12.0084 23.2292 12.0616 23.2496C12.1149 23.27 12.1717 23.2796 12.2287 23.2777H13.7704C13.8274 23.2796 13.8843 23.27 13.9375 23.2496C13.9908 23.2292 14.0394 23.1984 14.0804 23.1589C14.1214 23.1194 14.154 23.072 14.1763 23.0197C14.1986 22.9674 14.2101 22.9112 14.2101 22.8543C14.2101 22.7975 14.1986 22.7413 14.1763 22.689C14.154 22.6366 14.1214 22.5893 14.0804 22.5498C14.0394 22.5103 13.9908 22.4795 13.9375 22.4591C13.8843 22.4386 13.8274 22.4291 13.7704 22.431Z" fill="#203686"/>
<path d="M21.882 22.6703H20.3404C20.2845 22.6703 20.2292 22.6812 20.1776 22.7025C20.126 22.7238 20.0791 22.755 20.0396 22.7943C20.0001 22.8337 19.9688 22.8804 19.9474 22.9318C19.926 22.9831 19.915 23.0382 19.915 23.0938C19.915 23.1495 19.926 23.2045 19.9474 23.2559C19.9688 23.3073 20.0001 23.354 20.0396 23.3933C20.0791 23.4327 20.126 23.4639 20.1776 23.4852C20.2292 23.5065 20.2845 23.5174 20.3404 23.5174H21.882C21.9948 23.5174 22.103 23.4728 22.1828 23.3933C22.2625 23.3139 22.3074 23.2062 22.3074 23.0938C22.3074 22.9815 22.2625 22.8738 22.1828 22.7943C22.103 22.7149 21.9948 22.6703 21.882 22.6703Z" fill="#203686"/>
<path d="M24.6462 21.1328H23.5299V17.2056C23.5297 16.9215 23.4163 16.6492 23.2146 16.4482C23.0129 16.2473 22.7395 16.1343 22.4542 16.1339H18.2261C17.9408 16.1343 17.6673 16.2473 17.4655 16.4482C17.2638 16.6491 17.1503 16.9215 17.1499 17.2056V20.6408H16.1899V17.2056C16.1895 16.9215 16.076 16.6491 15.8743 16.4482C15.6725 16.2473 15.399 16.1343 15.1137 16.1339H10.8865C10.6012 16.1343 10.3277 16.2473 10.126 16.4482C9.92427 16.6491 9.81077 16.9215 9.81038 17.2056V20.6408H8.84939V17.2056C8.84901 16.9216 8.73564 16.6494 8.53411 16.4486C8.33259 16.2477 8.05933 16.1345 7.7742 16.1339H3.54603C3.26074 16.1343 2.98724 16.2473 2.7855 16.4482C2.58377 16.6491 2.47026 16.9215 2.46988 17.2056V21.1328H1.35404C1.29817 21.1327 1.24283 21.1436 1.1912 21.1649C1.13957 21.1862 1.09265 21.2173 1.05315 21.2567C1.01364 21.296 0.98231 21.3428 0.960958 21.3942C0.939606 21.4456 0.928648 21.5007 0.928711 21.5563V24.6504C0.928711 24.7627 0.973523 24.8705 1.05329 24.9499C1.13305 25.0293 1.24124 25.0739 1.35404 25.0739H24.6462C24.759 25.0739 24.8672 25.0293 24.947 24.9499C25.0268 24.8705 25.0716 24.7627 25.0716 24.6504V21.5539C25.0711 21.442 25.026 21.3348 24.9463 21.2558C24.8666 21.1769 24.7587 21.1326 24.6462 21.1328ZM18.0016 21.1328V18.7172H22.6778V21.1328H18.0016ZM18.227 16.9834H22.4542C22.5133 16.9839 22.5698 17.0075 22.6116 17.049C22.6534 17.0906 22.6772 17.1468 22.6778 17.2056V17.8701H18.0016V17.2056C18.0016 17.1462 18.0252 17.0892 18.0673 17.0471C18.1093 17.0051 18.1664 16.9813 18.2261 16.981L18.227 16.9834ZM10.8865 16.9834H15.1137C15.1735 16.9834 15.2309 17.0071 15.2732 17.0492C15.3155 17.0913 15.3392 17.1484 15.3392 17.208V17.8725H10.661V17.2056C10.661 17.1761 10.6669 17.1469 10.6782 17.1196C10.6895 17.0924 10.7062 17.0676 10.7271 17.0468C10.748 17.0259 10.7729 17.0094 10.8002 16.9981C10.8276 16.9868 10.8569 16.981 10.8865 16.981V16.9834ZM10.661 18.7182H15.3392V20.6418H10.661V18.7182ZM3.54797 16.9834H7.7742C7.83401 16.9834 7.89136 17.0071 7.93365 17.0492C7.97594 17.0913 7.99969 17.1484 7.99969 17.208V17.8725H3.32248V17.2056C3.32248 17.1464 3.34597 17.0895 3.38784 17.0475C3.42971 17.0054 3.48657 16.9815 3.54603 16.981L3.54797 16.9834ZM3.32248 18.7172H8.00066V21.1328H3.32248V18.7172ZM1.77938 21.9775H7.99872V24.2254H1.77938V21.9775ZM17.1509 24.2254H8.84939V21.4879H17.1509V24.2254ZM24.2209 24.2254H18.0016V21.9775H24.2209V24.2254Z" fill="#203686"/>
<path d="M5.65937 22.6703H4.11772C4.00491 22.6703 3.89673 22.7149 3.81696 22.7943C3.73719 22.8738 3.69238 22.9815 3.69238 23.0938C3.69238 23.2062 3.73719 23.3139 3.81696 23.3933C3.89673 23.4728 4.00491 23.5174 4.11772 23.5174H5.65937C5.71522 23.5174 5.77053 23.5065 5.82213 23.4852C5.87374 23.4639 5.92063 23.4327 5.96012 23.3933C5.99962 23.354 6.03095 23.3073 6.05232 23.2559C6.0737 23.2045 6.0847 23.1495 6.0847 23.0938C6.0847 23.0382 6.0737 22.9831 6.05232 22.9318C6.03095 22.8804 5.99962 22.8337 5.96012 22.7943C5.92063 22.755 5.87374 22.7238 5.82213 22.7025C5.77053 22.6812 5.71522 22.6703 5.65937 22.6703Z" fill="#203686"/>
</svg>
