<svg width="26" height="26" viewBox="0 0 26 26" fill="none" xmlns="http://www.w3.org/2000/svg">
<path d="M15.4987 4.27275C15.3427 4.20775 15.1607 4.24025 15.0372 4.3605C15.0014 4.40275 14.9689 4.44825 14.9494 4.50025C14.8942 4.63025 14.9072 4.77975 14.9852 4.89675C15.0632 5.01375 15.1964 5.08525 15.3362 5.082C15.4499 5.082 15.5572 5.03975 15.6352 4.9585C15.6709 4.91625 15.7034 4.87075 15.7294 4.81875C15.7489 4.76675 15.7587 4.71475 15.7587 4.6595C15.7587 4.60425 15.7489 4.549 15.7262 4.50025C15.6904 4.393 15.6059 4.31175 15.4987 4.27275Z" fill="#203686"/>
<path d="M18.3751 0.0148335H14.9171C14.6831 0.0148335 14.4946 0.203333 14.4946 0.437333C14.4946 0.671333 14.6831 0.859834 14.9171 0.859834H18.3751C21.0921 0.827334 23.3216 2.99833 23.3638 5.71533C23.3248 8.43233 21.0921 10.6033 18.3751 10.5708C16.8443 10.5773 15.3948 9.88833 14.4393 8.69558L21.8038 6.32633C21.9826 6.26783 22.1028 6.09883 22.0963 5.91033C22.0898 5.72183 21.9598 5.55933 21.7778 5.51383L19.2071 4.87033L21.1018 3.29083C21.2383 3.17708 21.2903 2.98858 21.2286 2.82283C21.1668 2.65708 21.0076 2.54333 20.8321 2.54333H10.2728C9.65534 2.54658 9.08985 2.88458 8.79735 3.42733C4.0166 4.44783 0.558594 8.53958 0.558594 13.2098C0.558594 13.3951 0.56509 13.5803 0.57484 13.7656C0.55534 13.8501 0.561839 13.9346 0.594339 14.0158C1.02334 19.1151 5.48234 23.1483 10.9358 23.2361L12.6031 24.9066C12.8663 25.1828 13.2271 25.3453 13.6106 25.3518C13.6236 25.3518 13.6366 25.3518 13.6463 25.3518C14.0558 25.3291 14.4393 25.1341 14.6961 24.8156L15.9148 23.2946C15.9213 23.2848 15.9246 23.2751 15.9311 23.2653C15.9863 23.2296 16.0416 23.1873 16.0903 23.1418C16.4186 22.8396 16.6038 22.4171 16.6038 21.9751C16.6038 21.5298 16.4186 21.1073 16.0903 20.8051C16.0416 20.7628 15.9863 20.7238 15.9311 20.6881C15.9246 20.6783 15.9213 20.6653 15.9148 20.6556L14.6798 19.1183C14.4231 18.8063 14.0461 18.6178 13.6431 18.5951C13.2498 18.5918 12.8728 18.7543 12.5998 19.0403L10.9456 20.6946C9.19384 20.6296 7.79959 19.5181 7.05534 17.7468H7.31209C7.58509 17.7533 7.84509 17.8801 8.01409 18.0946L8.6771 18.8681C8.82985 19.0436 9.09634 19.0631 9.27184 18.9136C9.44734 18.7608 9.4701 18.4943 9.31735 18.3188L8.65434 17.5453C8.32284 17.1456 7.82884 16.9116 7.30884 16.9018H6.75959C6.68484 16.6223 6.62309 16.3428 6.57759 16.0568H7.4486C7.78335 16.0568 8.10509 16.1901 8.34559 16.4273L9.11909 17.2008C9.28484 17.3633 9.5481 17.3633 9.71385 17.1976C9.87635 17.0351 9.87959 16.7686 9.71709 16.6028L8.94359 15.8293C8.54709 15.4328 8.01084 15.2086 7.45184 15.2118H6.48335C6.47035 15.0071 6.46385 14.7991 6.46385 14.5878C6.46385 14.5131 6.46709 14.4416 6.47034 14.3668H7.59484C7.99134 14.3636 8.37809 14.5001 8.68359 14.7568L9.56759 15.5303C9.74309 15.6831 10.0096 15.6668 10.1623 15.4913C10.3151 15.3158 10.2988 15.0493 10.1233 14.8966L9.24259 14.1231C8.78434 13.7298 8.20259 13.5186 7.59809 13.5251H6.51909C6.66859 12.0236 7.15284 10.8796 7.96209 10.0963C7.96534 10.0963 7.96534 10.0996 7.96859 10.1028L10.5556 11.3963C10.9261 11.5816 11.1828 11.9391 11.2446 12.3518L11.5403 14.4318C11.5696 14.6398 11.7483 14.7926 11.9563 14.7958C11.9758 14.7958 11.9953 14.7958 12.0181 14.7926C12.2488 14.7601 12.4081 14.5456 12.3756 14.3148L12.0798 12.2348C11.9823 11.5491 11.5533 10.9543 10.9326 10.6456L8.70635 9.53408C9.0931 9.30983 9.51234 9.14083 9.94784 9.03358C9.96409 9.02708 9.98035 9.02058 9.9966 9.01083C10.3606 9.46908 10.9391 9.70308 11.5208 9.63158C11.5468 9.62833 11.5728 9.62183 11.5988 9.61533L13.5878 8.97508C14.6928 10.5188 16.4771 11.4288 18.3751 11.4223C21.5568 11.4548 24.1666 8.90358 24.2056 5.72183C24.1698 2.53358 21.5601 -0.0176665 18.3751 0.0148335ZM14.0526 24.2696C13.9453 24.4028 13.7926 24.4906 13.6236 24.5068C13.4611 24.5036 13.3083 24.4321 13.2043 24.3086L12.2293 23.3336L14.6408 23.5351L14.0526 24.2696ZM13.2011 19.6383C13.3051 19.5213 13.4513 19.4498 13.6073 19.4401H13.6203C13.7828 19.4563 13.9323 19.5343 14.0363 19.6611L14.6376 20.4118L12.2261 20.6133L13.2011 19.6383ZM11.5371 21.5201L14.9561 21.2341C15.1641 21.2178 15.3688 21.2861 15.5216 21.4291C15.7556 21.6436 15.8271 21.9848 15.7003 22.2741C15.5736 22.5666 15.2746 22.7421 14.9593 22.7161L11.5371 22.4301V21.5201ZM5.62534 14.5943C5.62534 18.5106 7.68909 21.2893 10.6921 21.5298V22.3878C6.12909 22.2026 2.37535 19.0273 1.5661 14.8868C2.02435 15.1598 2.55084 15.3028 3.08384 15.3061C3.10334 15.3061 3.12609 15.3061 3.14559 15.3061C3.37634 15.3028 3.5616 15.1111 3.55835 14.8803C3.5551 14.6496 3.36659 14.4611 3.13584 14.4611C3.11634 14.4611 3.10009 14.4611 3.08384 14.4611C2.45009 14.4383 1.8521 14.1718 1.41335 13.7136C1.4036 13.5478 1.39709 13.3821 1.39709 13.2131C1.40034 12.4981 1.49135 11.7831 1.6701 11.0908C2.20635 11.6271 2.9181 11.9553 3.6786 12.0073C3.6851 12.0073 3.69485 12.0073 3.70135 12.0073C3.92885 12.0073 4.11734 11.8253 4.12384 11.5978C4.13034 11.3703 3.95484 11.1786 3.72409 11.1656C3.02534 11.0941 2.39159 10.7301 1.97559 10.1646C1.97234 10.1581 1.96259 10.1548 1.95934 10.1483C2.28759 9.29033 2.74259 8.48758 3.31134 7.76933C3.68509 8.47783 4.30909 9.01733 5.06309 9.28383C5.20609 9.33258 5.36534 9.30008 5.47909 9.19933C5.59284 9.09858 5.64484 8.94583 5.61234 8.79958C5.58309 8.65008 5.47584 8.52983 5.33284 8.48433C4.68284 8.23408 4.16609 7.72058 3.91584 7.07383C5.18334 5.74783 6.80184 4.80533 8.57959 4.35683V4.60058C8.57959 5.88758 8.9046 7.15183 9.52859 8.27633C7.69885 8.79958 5.62534 10.3368 5.62534 14.5943ZM13.9551 7.96433C13.8251 7.72058 13.7146 7.46708 13.6301 7.20708C13.5553 6.98608 13.3181 6.86583 13.0971 6.94058C12.8761 7.01533 12.7558 7.25258 12.8306 7.47358C12.9183 7.73033 13.0223 7.98383 13.1458 8.22758L11.3876 8.79308C11.0821 8.81908 10.7831 8.67608 10.6141 8.41933L10.5621 8.34783C9.82109 7.23958 9.4246 5.93308 9.42785 4.60058V4.23983C9.42785 3.77508 9.80484 3.39483 10.2728 3.39483H19.6621L18.0241 4.75983C17.9006 4.86058 17.8486 5.02308 17.8843 5.17908C17.9201 5.33508 18.0403 5.45533 18.1931 5.49433L20.1366 5.97858L13.9551 7.96433Z" fill="#203686"/>
</svg>
