<svg width="120" height="36" viewBox="0 0 120 36" fill="none" xmlns="http://www.w3.org/2000/svg">
<g clip-path="url(#clip0_325_954)">
<path d="M16.2479 21.7313C17.0519 21.7313 17.7358 21.4544 18.2638 20.9127C18.7918 20.3831 19.0558 19.721 19.0558 18.9024C19.0558 16.6032 18.1558 14.5568 16.3319 12.7511C14.5199 10.9454 12.3119 10.0546 9.69591 10.0546C7.06793 10.0546 4.81195 10.9936 2.87998 12.8835C0.959991 14.7855 0 17.0967 0 19.8052C0 22.5138 0.959991 24.801 2.86798 26.7028C4.77595 28.6169 7.04393 29.5678 9.70791 29.5678C12.3719 29.5678 14.4599 29.1104 15.9839 28.1955C16.8359 27.6178 17.2559 26.9556 17.2559 26.2214C17.2559 24.7528 16.2599 23.9341 15.0719 23.9341C14.4599 23.9341 13.8359 24.1508 13.1759 24.5844C12.5159 25.0296 11.5319 25.2463 10.1999 25.2463C8.87993 25.2463 7.75193 24.8971 6.79193 24.2231C5.81995 23.549 5.23195 22.7304 5.01595 21.7313H16.2479ZM12.9359 15.3994C13.8359 16.1578 14.3639 16.9884 14.5199 17.9273H5.01595C5.21995 16.9643 5.75995 16.1217 6.65995 15.3874C7.57193 14.6651 8.61593 14.304 9.80391 14.304C10.9919 14.304 12.0359 14.6651 12.9359 15.3994Z" fill="#1C1C1C"/>
<path d="M34.4044 23.6458C33.4205 24.693 32.1844 25.2108 30.6726 25.2108C29.1726 25.2108 27.9005 24.669 26.8926 23.5976C25.8844 22.5022 25.3686 21.2382 25.3686 19.7696C25.3686 18.301 25.8844 17.037 26.9165 15.9898C27.9365 14.9425 29.2084 14.4128 30.6965 14.4128C32.1844 14.4128 33.4205 14.9064 34.4044 15.9175C35.3765 16.9287 35.8565 18.1927 35.8565 19.7576C35.8565 21.3225 35.3765 22.5985 34.4044 23.6458ZM40.3323 3.36211C40.3323 2.72412 40.0923 2.15834 39.6123 1.67683C39.1323 1.19531 38.5684 0.954559 37.9205 0.954559C37.2844 0.954559 36.7205 1.19531 36.2405 1.67683C35.7605 2.15834 35.5205 2.72412 35.5205 3.36211V12.0053C34.1523 10.6691 32.4365 10.019 30.4326 10.019C27.8044 10.019 25.5365 10.9459 23.6526 12.8479C21.7325 14.7499 20.7845 17.0611 20.7845 19.7696C20.7845 22.4902 21.7205 24.8015 23.5686 26.7035C25.4165 28.6174 27.6605 29.5685 30.2884 29.5685C32.2923 29.5925 34.0923 28.9064 35.6644 27.5462C35.6644 28.0275 35.8923 28.4849 36.3244 28.9064C36.7684 29.3518 37.2963 29.5685 37.9444 29.5685C38.5805 29.5685 39.1323 29.3276 39.6123 28.8581C40.0923 28.3767 40.3323 27.7987 40.3323 27.1609V3.36211Z" fill="#1C1C1C"/>
<path d="M48.8112 12.3292C48.8112 11.6912 48.5712 11.1134 48.0912 10.644C47.6112 10.1624 47.0473 9.92169 46.4112 9.92169C45.7631 9.92169 45.1991 10.1624 44.7191 10.644C44.2391 11.1134 43.9991 11.6912 43.9991 12.3292V19.7325C43.9991 22.441 44.9831 24.7283 46.9031 26.63C48.8352 28.532 51.187 29.4832 53.9112 29.4832C56.647 29.4832 58.9752 28.5442 60.907 26.6543C62.8149 24.7763 63.7749 22.4771 63.7749 19.7325V12.3292C63.7749 11.6672 63.5349 11.1014 63.0549 10.6199C62.5749 10.1624 62.011 9.92169 61.3631 9.92169C60.727 9.92169 60.1631 10.1624 59.6831 10.644C59.2031 11.1134 58.9631 11.6912 58.9631 12.3292V19.7325C58.9631 21.2252 58.4831 22.4771 57.511 23.5244C56.5391 24.5718 55.3512 25.0893 53.8991 25.0893C52.447 25.0893 51.2352 24.5718 50.2631 23.5244C49.2912 22.4771 48.8112 21.2252 48.8112 19.7325V12.3292Z" fill="#1C1C1C"/>
<path fill-rule="evenodd" clip-rule="evenodd" d="M81.9102 4.56573H104.806C113.158 4.56573 119.998 11.4152 119.998 19.8056C119.998 28.1838 113.158 35.0455 104.806 35.0455H81.9102C73.5584 35.0455 66.7184 28.1838 66.7184 19.8056C66.7184 11.4152 73.5584 4.56573 81.9102 4.56573ZM89.1947 12.8601C87.2867 10.9581 84.9228 10.0312 82.1867 10.0312C79.4388 10.0312 77.0988 10.9581 75.1788 12.836C73.247 14.738 72.2988 17.0372 72.2988 19.7698C72.2988 22.5024 73.247 24.8136 75.1667 26.7156C77.0628 28.6295 79.4028 29.5806 82.1628 29.5806C84.9228 29.5806 87.2867 28.6295 89.1947 26.6916C91.1147 24.7775 92.0747 22.4662 92.0747 19.7698C92.0747 17.0733 91.1147 14.762 89.1947 12.8601ZM85.9547 23.6098C84.9467 24.6812 83.6749 25.2229 82.1867 25.2229C80.6988 25.2229 79.4267 24.6812 78.4188 23.6098C77.3988 22.5144 76.8828 21.2504 76.8828 19.7818C76.8828 18.3132 77.3988 17.0492 78.4309 16.002C79.4628 14.9547 80.7107 14.425 82.1988 14.425C83.6988 14.425 84.9467 14.9547 85.9547 16.002C86.9747 17.0492 87.4788 18.3132 87.4788 19.7818C87.4788 21.2504 86.9747 22.5144 85.9547 23.6098ZM109.463 27.1851C109.463 27.823 109.69 28.3888 110.183 28.8704C110.65 29.3518 111.227 29.5925 111.863 29.5925C112.499 29.5925 113.074 29.3518 113.554 28.8704C114.034 28.3888 114.274 27.823 114.274 27.1851V19.7698C114.274 17.0733 113.29 14.762 111.37 12.8601C109.439 10.9581 107.087 10.0312 104.363 10.0312C101.627 10.0312 99.2867 10.9581 97.3786 12.836C95.4586 14.738 94.4986 17.0372 94.4986 19.7698V27.1851C94.4986 27.847 94.7386 28.401 95.2186 28.8704C95.6986 29.3518 96.2626 29.5925 96.9107 29.5925C97.5467 29.5925 98.1107 29.3518 98.5907 28.8704C99.0707 28.3888 99.3107 27.823 99.3107 27.1851V19.7698C99.3107 18.2891 99.7907 17.0372 100.763 15.9899C101.735 14.9426 102.947 14.425 104.387 14.425C105.839 14.425 107.039 14.9426 108.01 15.9899C108.983 17.0372 109.463 18.2891 109.463 19.7698V27.1851Z" fill="#006AFF"/>
</g>
<defs>
<clipPath id="clip0_325_954">
<rect width="120" height="34.0909" fill="white" transform="translate(0 0.954559)"/>
</clipPath>
</defs>
</svg>
