<svg width="27" height="26" viewBox="0 0 27 26" fill="none" xmlns="http://www.w3.org/2000/svg">
<path d="M18.851 24.4847V23.9847H18.825L18.7991 23.9874L18.851 24.4847ZM14.6812 22.7134L15.0385 22.3637L15.0385 22.3636L14.6812 22.7134ZM9.56573 20.0809L9.52963 20.5796L9.52969 20.5796L9.56573 20.0809ZM2.66923 17.4874L2.24908 17.7585L2.24918 17.7586L2.66923 17.4874ZM2.01267 7.16559L2.46862 7.3708L2.46893 7.37011L2.01267 7.16559ZM2.06142 13.5908L1.61093 13.8078L1.6118 13.8096L2.06142 13.5908ZM2.67242 14.6861L2.25183 14.9565L2.25227 14.9571L2.67242 14.6861ZM9.56892 17.2796L9.60503 16.7809L9.60497 16.7809L9.56892 17.2796ZM14.6844 19.9121L15.0417 19.5623L15.0417 19.5623L14.6844 19.9121ZM18.8542 21.6833V21.1833H18.8285L18.8031 21.186L18.8542 21.6833ZM25.7474 9.19358L26.2446 9.14016L26.2428 9.12379L26.24 9.10757L25.7474 9.19358ZM20.5507 3.50934L20.53 4.00891L20.53 4.00891L20.5507 3.50934ZM6.85192 3.50934L6.84266 3.00942L6.8402 3.00947L6.85192 3.50934ZM2.43842 6.31408L2.8729 6.56164L2.87655 6.555L2.43842 6.31408ZM20.0567 5.90369C20.2249 5.68472 20.1838 5.37082 19.9648 5.20258C19.7459 5.03433 19.432 5.07546 19.2637 5.29443L20.0567 5.90369ZM12.6565 13.8939C12.4882 14.1129 12.5294 14.4268 12.7483 14.595C12.9673 14.7633 13.2812 14.7222 13.4495 14.5032L12.6565 13.8939ZM16.1307 5.9036C16.2989 5.68458 16.2577 5.37069 16.0387 5.2025C15.8196 5.03431 15.5058 5.07551 15.3376 5.29452L16.1307 5.9036ZM8.73356 13.894C8.56537 14.113 8.60657 14.4269 8.82558 14.5951C9.04459 14.7633 9.35848 14.7221 9.52667 14.5031L8.73356 13.894ZM12.0161 5.90369C12.1844 5.68472 12.1432 5.37082 11.9243 5.20258C11.7053 5.03433 11.3914 5.07546 11.2232 5.29443L12.0161 5.90369ZM4.61591 13.8939C4.44766 14.1129 4.48879 14.4268 4.70776 14.595C4.92673 14.7633 5.24063 14.7222 5.40887 14.5032L4.61591 13.8939ZM25.8157 11.7707C25.3182 11.8204 25.3182 11.8203 25.3182 11.8202C25.3182 11.8203 25.3182 11.8203 25.3182 11.8204C25.3182 11.8205 25.3183 11.8209 25.3183 11.8215C25.3184 11.8226 25.3186 11.8245 25.3189 11.8271C25.3194 11.8323 25.3201 11.8406 25.3211 11.8517C25.3231 11.874 25.326 11.9079 25.3295 11.9525C25.3365 12.0419 25.3459 12.1743 25.355 12.3438C25.3732 12.6828 25.3903 13.1691 25.3856 13.7532C25.3762 14.9245 25.2792 16.4756 24.9338 18.0184C24.587 19.5668 23.9991 21.0655 23.0367 22.1696C22.09 23.2556 20.7614 23.9847 18.851 23.9847V24.9847C21.0583 24.9847 22.6592 24.1245 23.7905 22.8267C24.906 21.5469 25.5446 19.8671 25.9096 18.2369C26.2759 16.6012 26.3759 14.9739 26.3856 13.7612C26.3905 13.1535 26.3727 12.6464 26.3535 12.2902C26.344 12.112 26.3341 11.9713 26.3265 11.8744C26.3227 11.8259 26.3195 11.7884 26.3171 11.7626C26.316 11.7497 26.3151 11.7397 26.3144 11.7327C26.3141 11.7292 26.3138 11.7265 26.3136 11.7245C26.3135 11.7235 26.3134 11.7228 26.3134 11.7222C26.3133 11.7219 26.3133 11.7216 26.3133 11.7214C26.3133 11.7212 26.3133 11.721 25.8157 11.7707ZM18.851 24.4847C18.7991 23.9874 18.7993 23.9874 18.7995 23.9873C18.7996 23.9873 18.7998 23.9873 18.7999 23.9873C18.8002 23.9873 18.8004 23.9872 18.8006 23.9872C18.801 23.9872 18.8012 23.9872 18.8013 23.9872C18.8016 23.9871 18.8013 23.9872 18.8005 23.9872C18.7989 23.9874 18.7953 23.9877 18.7897 23.9881C18.7786 23.9889 18.7597 23.9901 18.7335 23.991C18.6812 23.993 18.6003 23.9941 18.4953 23.9899C18.2852 23.9813 17.9807 23.9513 17.6184 23.8638C16.8962 23.6894 15.9422 23.2869 15.0385 22.3637L14.3239 23.0632C15.38 24.142 16.5109 24.6251 17.3837 24.8358C17.8188 24.9409 18.1893 24.9783 18.4548 24.989C18.5876 24.9944 18.6947 24.9932 18.7709 24.9903C18.809 24.9889 18.8394 24.9871 18.8616 24.9855C18.8727 24.9847 18.8818 24.9839 18.8887 24.9833C18.8921 24.983 18.895 24.9828 18.8974 24.9825C18.8986 24.9824 18.8997 24.9823 18.9006 24.9822C18.901 24.9822 18.9015 24.9821 18.9018 24.9821C18.902 24.9821 18.9023 24.982 18.9024 24.982C18.9027 24.982 18.9029 24.982 18.851 24.4847ZM15.0385 22.3636C13.4663 20.7578 11.9225 19.75 9.60179 19.5822L9.52969 20.5796C11.5249 20.7239 12.8542 21.5621 14.324 23.0632L15.0385 22.3636ZM9.60184 19.5822C8.52024 19.5039 7.19332 19.3988 5.96829 19.0559C4.73972 18.712 3.69223 18.1501 3.08929 17.2162L2.24918 17.7586C3.04374 18.9893 4.36712 19.6461 5.69874 20.0189C7.0339 20.3926 8.45648 20.5019 9.52963 20.5796L9.60184 19.5822ZM3.08939 17.2164C2.45884 16.2389 2.13931 14.7356 1.98659 13.4135C1.91155 12.7639 1.87889 12.1791 1.86505 11.7568C1.85814 11.5459 1.85594 11.3762 1.85546 11.26C1.85522 11.2019 1.8554 11.1572 1.85564 11.1275C1.85576 11.1126 1.8559 11.1015 1.85599 11.0943C1.85604 11.0907 1.85608 11.0881 1.85611 11.0865C1.85612 11.0857 1.85613 11.0851 1.85614 11.0848C1.85614 11.0847 1.85614 11.0846 1.85614 11.0846C1.85614 11.0846 1.85614 11.0846 1.85614 11.0846C1.85614 11.0847 1.85614 11.0847 1.35623 11.0752C0.856323 11.0656 0.856321 11.0657 0.856319 11.0658C0.856318 11.0659 0.856316 11.066 0.856313 11.0662C0.856309 11.0664 0.856303 11.0667 0.856297 11.0671C0.856284 11.0678 0.856266 11.0688 0.856246 11.0701C0.856205 11.0726 0.85615 11.0761 0.856088 11.0806C0.855965 11.0896 0.855811 11.1026 0.855676 11.1194C0.855406 11.153 0.855209 11.2018 0.855468 11.2641C0.855987 11.3888 0.858334 11.5681 0.865591 11.7895C0.880087 12.2319 0.914261 12.8449 0.993192 13.5282C1.14841 14.8719 1.48538 16.5747 2.24908 17.7585L3.08939 17.2164ZM1.55673 6.96037C0.575493 9.14051 0.569433 11.6449 1.61093 13.8078L2.51191 13.3739C1.60341 11.4873 1.60385 9.29216 2.46862 7.3708L1.55673 6.96037ZM1.6118 13.8096C1.79414 14.1844 2.00512 14.5727 2.25183 14.9565L3.09301 14.4157C2.87173 14.0715 2.6797 13.7188 2.51104 13.3721L1.6118 13.8096ZM2.25227 14.9571C3.04522 16.1863 4.3679 16.8431 5.69935 17.2163C7.03451 17.5904 8.4578 17.7006 9.53287 17.7783L9.60497 16.7809C8.52205 16.7026 7.19421 16.5966 5.96918 16.2534C4.74045 15.909 3.69388 15.3471 3.09258 14.415L2.25227 14.9571ZM9.53282 17.7783C11.5251 17.9225 12.8544 18.7577 14.3272 20.2619L15.0417 19.5623C13.466 17.9529 11.9223 16.9487 9.60503 16.7809L9.53282 17.7783ZM14.3271 20.2618C15.3816 21.3391 16.5126 21.8221 17.3854 22.0332C17.8207 22.1385 18.1914 22.1762 18.457 22.1872C18.5899 22.1927 18.697 22.1916 18.7732 22.1889C18.8114 22.1875 18.8419 22.1857 18.8641 22.1842C18.8752 22.1834 18.8842 22.1826 18.8911 22.182C18.8945 22.1817 18.8975 22.1815 18.8998 22.1813C18.901 22.1811 18.9021 22.181 18.903 22.1809C18.9034 22.1809 18.9039 22.1809 18.9042 22.1808C18.9044 22.1808 18.9047 22.1808 18.9048 22.1808C18.9051 22.1807 18.9053 22.1807 18.8542 21.6833C18.8031 21.186 18.8033 21.1859 18.8035 21.1859C18.8036 21.1859 18.8038 21.1859 18.8039 21.1859C18.8042 21.1858 18.8044 21.1858 18.8046 21.1858C18.8049 21.1858 18.8052 21.1857 18.8053 21.1857C18.8055 21.1857 18.8052 21.1857 18.8044 21.1858C18.8028 21.1859 18.7992 21.1862 18.7936 21.1866C18.7824 21.1874 18.7635 21.1886 18.7373 21.1895C18.6848 21.1914 18.6037 21.1925 18.4986 21.1881C18.288 21.1793 17.9831 21.149 17.6205 21.0613C16.8977 20.8864 15.9437 20.4838 15.0417 19.5623L14.3271 20.2618ZM18.8542 22.1833C21.0584 22.1833 22.6546 21.3397 23.7807 20.0625C24.8909 18.8031 25.5209 17.1501 25.8772 15.5469C26.2347 13.9384 26.3256 12.3383 26.3285 11.1463C26.3299 10.5488 26.3092 10.0504 26.2881 9.70012C26.2775 9.52492 26.2668 9.38659 26.2587 9.29126C26.2546 9.24359 26.2512 9.20665 26.2487 9.18122C26.2475 9.1685 26.2465 9.15866 26.2458 9.15178C26.2454 9.14834 26.2451 9.14565 26.2449 9.14371C26.2448 9.14274 26.2448 9.14195 26.2447 9.14136C26.2447 9.14107 26.2446 9.14076 26.2446 9.14062C26.2446 9.14036 26.2446 9.14016 25.7474 9.19358C25.2503 9.24701 25.2503 9.2469 25.2503 9.24683C25.2503 9.24688 25.2503 9.24686 25.2503 9.24694C25.2503 9.24711 25.2503 9.24747 25.2504 9.24801C25.2505 9.24909 25.2507 9.25092 25.251 9.25349C25.2515 9.25862 25.2523 9.26669 25.2533 9.2776C25.2555 9.29943 25.2586 9.33263 25.2623 9.37644C25.2698 9.46406 25.2799 9.59407 25.2899 9.76038C25.31 10.0932 25.3299 10.5705 25.3285 11.1439C25.3257 12.2937 25.2374 13.8161 24.901 15.33C24.5634 16.8492 23.9848 18.3187 23.0305 19.4012C22.092 20.4658 20.7677 21.1833 18.8542 21.1833V22.1833ZM25.7474 9.19358C26.24 9.10757 26.2399 9.10737 26.2399 9.10715C26.2399 9.10705 26.2398 9.1068 26.2398 9.1066C26.2397 9.10619 26.2396 9.1057 26.2395 9.10513C26.2393 9.10398 26.2391 9.1025 26.2387 9.10068C26.2381 9.09706 26.2372 9.09212 26.236 9.0859C26.2337 9.07346 26.2303 9.05592 26.2259 9.03359C26.2169 8.98896 26.2036 8.92518 26.1852 8.84491C26.1485 8.6845 26.0915 8.45765 26.0097 8.18592C25.8466 7.64418 25.5818 6.91527 25.1751 6.17623C24.367 4.70745 22.9414 3.10798 20.5714 3.00976L20.53 4.00891C22.3947 4.08619 23.5675 5.32885 24.299 6.65831C24.6622 7.3184 24.9026 7.97764 25.0522 8.47428C25.1267 8.72173 25.178 8.92662 25.2104 9.06816C25.2266 9.13887 25.2381 9.1936 25.2453 9.22975C25.2489 9.24782 25.2515 9.26123 25.253 9.26965C25.2538 9.27386 25.2544 9.27682 25.2547 9.27849C25.2548 9.27933 25.2549 9.27984 25.255 9.28003C25.255 9.28012 25.255 9.28013 25.255 9.28006C25.255 9.28002 25.2549 9.27991 25.2549 9.27989C25.2549 9.27975 25.2549 9.2796 25.7474 9.19358ZM20.5714 3.00976C18.4417 2.92143 15.0053 2.92161 12.1107 2.94354C10.6614 2.95452 9.34458 2.97098 8.39011 2.98471C7.91285 2.99157 7.52612 2.99775 7.25864 3.00221C7.12491 3.00444 7.02098 3.00624 6.95045 3.00749C6.91519 3.00811 6.88827 3.00859 6.87016 3.00892C6.8611 3.00908 6.85424 3.00921 6.84964 3.00929C6.84734 3.00934 6.8456 3.00937 6.84444 3.00939C6.84385 3.0094 6.84341 3.00941 6.84311 3.00941C6.84297 3.00942 6.84285 3.00942 6.84278 3.00942C6.8427 3.00942 6.84266 3.00942 6.85192 3.50934C6.86119 4.00925 6.86122 4.00925 6.86129 4.00925C6.86136 4.00925 6.86146 4.00924 6.8616 4.00924C6.86188 4.00924 6.8623 4.00923 6.86286 4.00922C6.864 4.0092 6.8657 4.00917 6.86796 4.00912C6.87249 4.00904 6.87928 4.00892 6.88826 4.00876C6.90623 4.00843 6.933 4.00795 6.9681 4.00733C7.03832 4.00609 7.14193 4.00429 7.27532 4.00207C7.54212 3.99762 7.92808 3.99145 8.40449 3.9846C9.35736 3.9709 10.6718 3.95447 12.1183 3.94351C15.0152 3.92156 18.4282 3.92174 20.53 4.00891L20.5714 3.00976ZM6.85192 3.50934C6.8402 3.00947 6.83996 3.00948 6.83971 3.00948C6.83961 3.00949 6.83935 3.00949 6.83915 3.0095C6.83876 3.00951 6.83832 3.00952 6.83784 3.00953C6.83688 3.00956 6.83573 3.00959 6.83442 3.00963C6.83178 3.00971 6.82843 3.00983 6.82439 3.00998C6.81631 3.01029 6.80546 3.01077 6.79198 3.01149C6.76502 3.01295 6.72749 3.0154 6.68045 3.01951C6.58644 3.02773 6.45408 3.04262 6.29206 3.0695C5.96866 3.12317 5.52321 3.2253 5.02683 3.42007C4.0317 3.81052 2.82234 4.57822 2.00029 6.07316L2.87655 6.555C3.55926 5.31345 4.55664 4.67877 5.39208 4.35097C5.81098 4.18661 6.18676 4.10065 6.45578 4.05601C6.58996 4.03374 6.69661 4.02191 6.76755 4.01571C6.80299 4.01261 6.82941 4.01093 6.8458 4.01005C6.85399 4.0096 6.85966 4.00936 6.86268 4.00925C6.86419 4.00919 6.86504 4.00916 6.8652 4.00916C6.86529 4.00916 6.8652 4.00916 6.86494 4.00917C6.86481 4.00917 6.86464 4.00917 6.86443 4.00918C6.86432 4.00918 6.86413 4.00919 6.86407 4.00919C6.86387 4.00919 6.86365 4.0092 6.85192 3.50934ZM2.00399 6.06656C1.83397 6.36497 1.68692 6.66994 1.55642 6.96106L2.46893 7.37011C2.59193 7.09573 2.72438 6.8222 2.87285 6.56161L2.00399 6.06656ZM20.3302 14.8484C20.3302 15.7569 19.5937 16.4934 18.6852 16.4934V17.4934C20.146 17.4934 21.3302 16.3091 21.3302 14.8484H20.3302ZM18.6852 16.4934C17.7767 16.4934 17.0402 15.7569 17.0402 14.8484H16.0402C16.0402 16.3092 17.2244 17.4934 18.6852 17.4934V16.4934ZM17.0402 14.8484C17.0402 13.9398 17.7767 13.2034 18.6852 13.2034V12.2034C17.2244 12.2034 16.0402 13.3876 16.0402 14.8484H17.0402ZM18.6852 13.2034C19.5937 13.2034 20.3302 13.9398 20.3302 14.8484H21.3302C21.3302 13.3876 20.146 12.2034 18.6852 12.2034V13.2034ZM19.2637 5.29443L12.6565 13.8939L13.4495 14.5032L20.0567 5.90369L19.2637 5.29443ZM15.3376 5.29452L8.73356 13.894L9.52667 14.5031L16.1307 5.9036L15.3376 5.29452ZM11.2232 5.29443L4.61591 13.8939L5.40887 14.5032L12.0161 5.90369L11.2232 5.29443Z" fill="#203686"/>
</svg>
