<svg width="26" height="26" viewBox="0 0 26 26" fill="none" xmlns="http://www.w3.org/2000/svg">
<path d="M16.2958 21.3455C16.507 21.3162 16.6533 21.1212 16.624 20.9132C16.5233 20.1852 15.051 20.754 15.2103 21.885C15.3663 23.0127 16.9393 23.1655 16.8353 22.4342C16.806 22.223 16.611 22.0767 16.403 22.106C16.195 22.1352 16 21.989 15.9708 21.7777C15.9415 21.5665 16.0878 21.3747 16.2958 21.3455Z" fill="#203686" stroke="#203686" stroke-width="0.084" stroke-miterlimit="10"/>
<path d="M15.7043 19.0907C15.7043 18.4537 15.1876 17.9402 14.5538 17.9402C13.9201 17.9402 13.4033 18.457 13.4033 19.0907C13.4033 19.7277 13.9201 20.2413 14.5538 20.2413C15.1876 20.2413 15.7043 19.7277 15.7043 19.0907ZM14.1671 19.0907C14.1671 18.8795 14.3393 18.7073 14.5506 18.7073C14.7618 18.7073 14.9341 18.8795 14.9341 19.0907C14.9341 19.302 14.7618 19.4742 14.5506 19.4742C14.3393 19.4742 14.1671 19.302 14.1671 19.0907Z" fill="#203686" stroke="#203686" stroke-width="0.084" stroke-miterlimit="10"/>
<path d="M12.6319 21.7779C11.9949 21.7779 11.4814 22.2946 11.4814 22.9284C11.4814 23.5654 11.9982 24.0789 12.6319 24.0789C13.2657 24.0789 13.7824 23.5621 13.7824 22.9284C13.7824 22.2946 13.2689 21.7779 12.6319 21.7779ZM12.6319 23.3119C12.4207 23.3119 12.2484 23.1396 12.2484 22.9284C12.2484 22.7171 12.4207 22.5449 12.6319 22.5449C12.8432 22.5449 13.0154 22.7171 13.0154 22.9284C13.0154 23.1396 12.8432 23.3119 12.6319 23.3119Z" fill="#203686" stroke="#203686" stroke-width="0.084" stroke-miterlimit="10"/>
<path d="M15.8627 24.5174C13.734 25.2389 11.3387 24.7482 9.68772 23.2727L9.98346 22.5024C11.0072 22.2554 11.4655 20.9944 10.8902 20.1462L11.9042 17.5137C13.5617 18.0272 14.5465 15.3719 13.0092 14.6407L13.8412 12.4794L14.969 15.4109C15.151 15.8854 15.8692 15.6092 15.684 15.1347L14.397 11.7937H16.2625L16.6947 12.9182C15.5377 13.8834 16.3437 16.0479 18.089 15.5767C18.2937 15.5214 18.4172 15.3134 18.362 15.1087C18.3067 14.9039 18.0987 14.7804 17.894 14.8357C17.8907 14.8357 17.8907 14.8357 17.8875 14.8357C16.8735 15.1087 16.6135 13.7729 17.335 13.4089C17.5105 13.3212 17.5917 13.1132 17.5202 12.9279L16.8832 11.2704C16.8247 11.1209 16.685 11.0234 16.5257 11.0234C13.7665 11.0234 13.6105 10.9324 13.4805 11.2704C12.1577 14.8487 12.005 14.7869 12.1675 15.0697C12.226 15.1704 12.3235 15.2387 12.4372 15.2582C13.266 15.3947 13.0645 16.3859 12.616 16.7012C12.4047 16.8507 12.161 16.8377 11.8912 16.6654C11.7125 16.5517 11.4752 16.6037 11.3615 16.7824C11.3485 16.8052 11.3355 16.8279 11.3257 16.8507L10.0842 20.0714C10.029 20.2112 10.0615 20.3704 10.1655 20.4777C10.5782 20.9034 10.2987 21.7322 9.66822 21.7679C9.51872 21.7777 9.38871 21.8719 9.33346 22.0117L8.86548 23.2304C8.81023 23.3734 8.84597 23.5359 8.95647 23.6432C10.8707 25.5054 13.552 26.1067 16.0967 25.2357C16.2982 25.1674 16.4055 24.9497 16.3372 24.7482C16.282 24.5564 16.0642 24.4492 15.8627 24.5174Z" fill="#203686" stroke="#203686" stroke-width="0.084" stroke-miterlimit="10"/>
<path d="M23.0488 22.3888L23.5233 17.1693H23.9393C24.1505 17.1693 24.3228 16.9971 24.3228 16.7858C24.3228 16.5746 24.1505 16.4023 23.9393 16.4023C23.5785 16.4023 16.5001 16.4023 15.4958 16.4023C15.2846 16.4023 15.1123 16.5746 15.1123 16.7858C15.1123 16.9971 15.2846 17.1693 15.4958 17.1693H15.9118L16.6463 25.2651C16.6658 25.4633 16.8283 25.6128 17.0298 25.6128H22.4053C22.6036 25.6128 22.7693 25.4601 22.7888 25.2651L23.0683 22.1906C23.091 21.9793 22.9383 21.7908 22.7271 21.7681C22.5158 21.7453 22.3273 21.8981 22.3046 22.1093C22.3046 22.1126 22.3046 22.1158 22.3046 22.1191L22.0576 24.8426H17.3841L16.6853 17.1661H22.7531L22.2851 22.3173" fill="#203686"/>
<path d="M23.0488 22.3888L23.5233 17.1693H23.9393C24.1505 17.1693 24.3228 16.9971 24.3228 16.7858C24.3228 16.5746 24.1505 16.4023 23.9393 16.4023C23.5785 16.4023 16.5001 16.4023 15.4958 16.4023C15.2846 16.4023 15.1123 16.5746 15.1123 16.7858C15.1123 16.9971 15.2846 17.1693 15.4958 17.1693H15.9118L16.6463 25.2651C16.6658 25.4633 16.8283 25.6128 17.0298 25.6128H22.4053C22.6036 25.6128 22.7693 25.4601 22.7888 25.2651L23.0683 22.1906C23.091 21.9793 22.9383 21.7908 22.7271 21.7681C22.5158 21.7453 22.3273 21.8981 22.3046 22.1093C22.3046 22.1126 22.3046 22.1158 22.3046 22.1191L22.0576 24.8426H17.3841L16.6853 17.1661H22.7531L22.2851 22.3173" stroke="#203686" stroke-width="0.084" stroke-miterlimit="10"/>
<path d="M14.1663 10.2519C14.3743 10.2941 14.5758 10.1609 14.6181 9.95287C14.7871 9.12412 15.2551 8.38637 15.9311 7.87937C15.9441 7.86962 15.9603 7.85662 15.9733 7.84362C16.4836 7.33337 16.5583 6.37787 15.5736 5.55562C15.3948 5.40612 15.3298 5.15262 15.3818 5.00962C15.3948 4.97712 15.4273 4.88612 15.6451 4.88612C20.2926 4.97387 20.5266 4.74962 20.6241 5.01612C20.6761 5.15587 20.6176 5.40287 20.4356 5.55562C19.9513 5.96187 19.6946 6.40387 19.6718 6.86537C19.6523 7.32362 19.8993 7.74612 20.0781 7.87937C20.9458 8.53262 21.4561 10.2064 21.4593 11.2919C21.4593 11.5031 21.6316 11.6754 21.8428 11.6754C22.0541 11.6754 22.2263 11.5031 22.2263 11.2919C22.2231 9.97887 21.6121 8.08737 20.5688 7.28787C20.2536 6.89787 20.5461 6.46237 20.9263 6.14387C21.6218 5.56212 21.5796 4.40187 20.6891 4.15812V1.42812C20.6891 1.21687 20.5168 1.04462 20.3056 1.04462H15.7003C15.4891 1.04462 15.3168 1.21687 15.3168 1.42812V4.15487C14.4166 4.39537 14.3841 5.55887 15.0796 6.14062C15.4663 6.46237 15.7491 6.89787 15.4371 7.28462C14.6278 7.90537 14.0688 8.79587 13.8641 9.79362C13.8251 10.0081 13.9616 10.2096 14.1663 10.2519ZM16.0871 1.81487H19.9253V2.58187H17.2376C17.0263 2.58187 16.8541 2.75412 16.8541 2.96537C16.8541 3.17662 17.0263 3.34887 17.2376 3.34887H19.9253V4.11587H16.0871V1.81487Z" fill="#203686" stroke="#203686" stroke-width="0.084" stroke-miterlimit="10"/>
<path d="M4.95599 19.09C4.95599 18.8788 4.78374 18.7065 4.57249 18.7065C3.72424 18.7065 3.03848 18.0175 3.03848 17.1725C3.03848 16.5875 3.88674 15.2648 4.57249 14.345C5.26149 15.2648 6.10648 16.5875 6.10648 17.1725C6.10648 17.3838 6.27873 17.556 6.48998 17.556C6.70123 17.556 6.8735 17.3838 6.8735 17.1725C6.8735 16.0123 5.07624 13.734 4.87149 13.4773C4.73824 13.3115 4.49775 13.2855 4.332 13.4188C4.30925 13.435 4.28975 13.4578 4.2735 13.4773C4.06875 13.734 2.27149 16.0123 2.27149 17.1725C2.26824 19.2883 4.95599 20.0163 4.95599 19.09Z" fill="#203686" stroke="#203686" stroke-width="0.084" stroke-miterlimit="10"/>
<path d="M13.0324 14.6589V7.57061C13.0324 7.37561 13.0519 7.53161 10.7119 3.61211V1.42811C10.7119 1.21686 10.5396 1.04462 10.3284 1.04462H3.41888C3.20763 1.04462 3.03538 1.21686 3.03538 1.42811V3.62511L2.72988 4.13861L1.15036 6.77111C0.770115 7.40811 0.734375 7.43086 0.734375 7.57061V25.2279C0.734375 25.4391 0.906623 25.6114 1.11787 25.6114H13.1364C13.3476 25.6114 13.5199 25.4391 13.5199 25.2279C13.5199 25.0166 13.3476 24.8444 13.1364 24.8444H8.41087V7.67786L10.3349 4.47011L12.2654 7.67786V14.6589H13.0324ZM6.49011 7.95411H7.64062V11.0254H1.49812V7.95411H4.95287H6.49011ZM4.95612 7.18711H1.79388L1.80687 7.16436L3.38311 4.53837C3.38311 4.53512 3.38637 4.53512 3.38637 4.53187L3.63662 4.11587H9.65238L7.80963 7.18711H6.49011H4.95612ZM3.80238 3.34561V1.81162H9.94486V3.34561H3.80238ZM7.64062 24.8444H1.49812V21.7731H7.64062V24.8444ZM7.64062 21.0061H1.49812V11.7924H7.64062V21.0061Z" fill="#203686" stroke="#203686" stroke-width="0.084" stroke-miterlimit="10"/>
<path d="M21.8464 10.7293C21.6351 10.7293 21.4629 10.9016 21.4629 11.1128V16.5468C21.4629 16.7581 21.6351 16.9303 21.8464 16.9303C22.0576 16.9303 22.2299 16.7581 22.2299 16.5468V11.1128C22.2299 10.9016 22.0576 10.7293 21.8464 10.7293Z" fill="#203686" stroke="#203686" stroke-width="0.084" stroke-miterlimit="10"/>
<path d="M6.8735 17.1653C6.8735 16.005 5.07623 13.7268 4.87148 13.47C4.85523 13.4473 4.83249 13.4278 4.81299 13.4115C4.64724 13.2783 4.40675 13.3043 4.2735 13.47C4.06875 13.7268 2.27148 16.005 2.27148 17.1653C2.27148 17.3765 2.44373 17.5488 2.65498 17.5488C2.86623 17.5488 3.03848 17.3765 3.03848 17.1653C3.03848 16.5803 3.88674 15.2575 4.57249 14.3378C5.26149 15.2575 6.10648 16.5803 6.10648 17.1653C6.10648 18.0135 5.41749 18.6993 4.57249 18.6993C4.36124 18.6993 4.18899 18.8715 4.18899 19.0828C4.18574 20.0123 6.8735 19.2843 6.8735 17.1653Z" fill="#203686" stroke="#203686" stroke-width="0.084" stroke-miterlimit="10"/>
<path d="M14.1895 11.2826C14.1895 11.2826 14.222 9.80712 14.2935 9.61212" stroke="#203686" stroke-width="0.8981" stroke-miterlimit="10"/>
<path d="M15.759 16.6673L15.2617 15.0748" stroke="#203686" stroke-width="0.91" stroke-miterlimit="10"/>
<path d="M16.8256 24.4693C16.8256 24.4693 16.5461 24.7033 16.3284 24.7781C16.1106 24.8528 15.2754 25.0868 15.2754 25.0868" stroke="#203686" stroke-width="0.91" stroke-miterlimit="10"/>
<path d="M17.9727 15.2416L18.3464 16.7658" stroke="#203686" stroke-width="0.91" stroke-miterlimit="10"/>
</svg>
