<svg width="11" height="18" viewBox="0 0 11 18" fill="none" xmlns="http://www.w3.org/2000/svg">
<path d="M10.6311 11.0769C11.0525 10.6555 11.1127 10.0535 10.7515 9.45151C10.4505 8.9699 9.90865 8.7291 9.30665 8.8495C9.06585 8.9097 8.82504 9.03011 8.58423 9.21071C6.71801 10.4749 4.18959 10.4147 2.32337 9.15051C2.20297 9.0903 2.08256 9.0301 1.96216 8.9699C1.29995 8.6689 0.637754 8.78931 0.27655 9.39131C-0.144855 9.99332 -0.0846615 10.6555 0.457144 11.1973C0.577546 11.3177 0.697947 11.3779 0.758148 11.4983L0.818352 11.5585C1.66116 12.2207 2.68457 12.6421 4.00899 12.8227L3.22638 13.6054C2.56417 14.2676 1.84177 14.99 1.17956 15.6522C0.998958 15.8328 0.758148 16.1338 0.758148 16.5552C0.758148 17.097 1.05916 17.6388 1.60096 17.8796C1.78156 18 1.96216 18 2.14276 18C2.44377 18 2.80497 17.8796 3.04577 17.5786C3.94878 16.6756 4.6712 15.9532 5.39361 15.2308C5.45381 15.1706 5.4538 15.1706 5.4538 15.1706C5.4538 15.1706 5.51401 15.1706 5.51401 15.2308C5.99561 15.7726 6.53742 16.2542 7.01902 16.796C7.25982 17.0368 7.50062 17.2776 7.74143 17.5184C8.04243 17.8194 8.28323 17.9398 8.64444 17.9398C9.18624 18 9.78825 17.6388 10.0291 17.097C10.2699 16.6154 10.1495 16.0134 9.72805 15.6522C9.12604 15.0502 8.52403 14.388 7.86183 13.786L6.83842 12.7625C7.38022 12.7023 7.98223 12.5819 8.52404 12.3411C9.42705 12.0401 10.0893 11.6187 10.6311 11.0769Z" fill="#203686"/>
<path d="M5.4538 9.39131C8.04243 9.39131 10.1495 7.34448 10.1495 4.75585C10.1495 3.49163 9.66785 2.28763 8.76484 1.38462C7.86183 0.481607 6.71802 0 5.514 0C2.92538 0 0.878552 2.10702 0.818351 4.63545C0.818351 5.89966 1.29996 7.04347 2.20297 7.94648C3.04578 8.90969 4.18959 9.39131 5.4538 9.39131ZM4.12939 3.37124C4.49059 3.01004 4.97219 2.82943 5.4538 2.82943C6.53741 2.82943 7.32002 3.67224 7.32002 4.69565C7.32002 5.77926 6.47721 6.56187 5.4538 6.56187C4.37019 6.56187 3.58759 5.71906 3.58759 4.69565C3.58759 4.21405 3.76818 3.73244 4.12939 3.37124Z" fill="#203686"/>
<path d="M10.6311 11.0769C11.0525 10.6555 11.1127 10.0535 10.7515 9.45151C10.4505 8.9699 9.90865 8.7291 9.30665 8.8495C9.06585 8.9097 8.82504 9.03011 8.58423 9.21071C6.71801 10.4749 4.18959 10.4147 2.32337 9.15051C2.20297 9.0903 2.08256 9.0301 1.96216 8.9699C1.29995 8.6689 0.637754 8.78931 0.27655 9.39131C-0.144855 9.99332 -0.0846615 10.6555 0.457144 11.1973C0.577546 11.3177 0.697947 11.3779 0.758148 11.4983L0.818352 11.5585C1.66116 12.2207 2.68457 12.6421 4.00899 12.8227L3.22638 13.6054C2.56417 14.2676 1.84177 14.99 1.17956 15.6522C0.998958 15.8328 0.758148 16.1338 0.758148 16.5552C0.758148 17.097 1.05916 17.6388 1.60096 17.8796C1.78156 18 1.96216 18 2.14276 18C2.44377 18 2.80497 17.8796 3.04577 17.5786C3.94878 16.6756 4.6712 15.9532 5.39361 15.2308C5.45381 15.1706 5.4538 15.1706 5.4538 15.1706C5.4538 15.1706 5.51401 15.1706 5.51401 15.2308C5.99561 15.7726 6.53742 16.2542 7.01902 16.796C7.25982 17.0368 7.50062 17.2776 7.74143 17.5184C8.04243 17.8194 8.28323 17.9398 8.64444 17.9398C9.18624 18 9.78825 17.6388 10.0291 17.097C10.2699 16.6154 10.1495 16.0134 9.72805 15.6522C9.12604 15.0502 8.52403 14.388 7.86183 13.786L6.83842 12.7625C7.38022 12.7023 7.98223 12.5819 8.52404 12.3411C9.42705 12.0401 10.0893 11.6187 10.6311 11.0769Z" fill="#203686"/>
</svg>
