<svg width="27" height="26" viewBox="0 0 27 26" fill="none" xmlns="http://www.w3.org/2000/svg">
<path d="M1.29785 24.8267H25.2374M1.29785 8.89404H25.2374M2.27312 11.8267H24.2626M2.27312 21.7363H24.2626M2.22733 8.89404H24.2948V24.8255H2.22733V8.89404Z" stroke="#203686" stroke-miterlimit="10" stroke-linecap="round"/>
<path d="M17.5903 14.9515C17.5903 14.9515 13.8983 18.6663 11.4998 18.6858C9.67006 18.702 8.95508 17.8538 8.95508 16.856C8.95508 15.8583 9.88132 15.0523 11.4056 15.0718C14.0511 15.1075 17.5903 18.5915 17.5903 18.5915" stroke="#203686" stroke-miterlimit="10" stroke-linecap="round"/>
<path d="M20.3466 4.03062C20.3044 4.03062 20.2621 4.03387 20.2199 4.03712C20.4246 3.66012 20.5416 3.23112 20.5416 2.77287C20.5416 1.31687 19.3553 0.130615 17.8993 0.130615C16.8691 0.130615 15.9753 0.725365 15.5398 1.58987C15.1043 0.725365 14.2106 0.130615 13.1804 0.130615C12.1046 0.130615 11.1783 0.777365 10.7656 1.70362C10.3528 0.777365 9.4266 0.130615 8.35085 0.130615C6.89485 0.130615 5.70859 1.31687 5.70859 2.77287C5.70859 3.22787 5.82561 3.65687 6.02711 4.03387C4.59061 4.05987 3.43359 5.23312 3.43359 6.67287C3.43359 8.12887 4.61985 9.31511 6.07585 9.31511C7.1516 9.31511 7.44085 9.26962 8.46135 8.65212C9.4526 9.03237 9.82961 9.31511 10.9054 9.31511C11.9356 9.31511 12.4816 9.28262 13.2941 8.57087C14.0709 9.15262 14.5908 9.31511 15.6243 9.31511C16.6578 9.31511 16.7196 9.26962 17.9871 8.71712C19.1051 9.25337 19.3164 9.31511 20.3466 9.31511C21.8026 9.31511 22.9889 8.12887 22.9889 6.67287C22.9889 5.21687 21.8026 4.03062 20.3466 4.03062ZM17.8993 0.975615C18.8906 0.975615 19.6966 1.78162 19.6966 2.77287C19.6966 3.76412 18.8906 4.57012 17.8993 4.57012C16.9081 4.57012 16.1021 3.76412 16.1021 2.77287C16.1021 1.78162 16.9081 0.975615 17.8993 0.975615ZM13.1771 0.975615C14.1684 0.975615 14.9743 1.78162 14.9743 2.77287C14.9743 3.76412 14.1684 4.57012 13.1771 4.57012C12.1859 4.57012 11.3798 3.76412 11.3798 2.77287C11.3798 1.78162 12.1859 0.975615 13.1771 0.975615ZM8.34759 0.975615C9.33884 0.975615 10.1449 1.78162 10.1449 2.77287C10.1449 3.76412 9.33884 4.57012 8.34759 4.57012C7.35634 4.57012 6.55035 3.76412 6.55035 2.77287C6.55035 1.78162 7.35634 0.975615 8.34759 0.975615ZM6.07259 8.47012C5.08134 8.47012 4.27535 7.66412 4.27535 6.67287C4.27535 5.68162 5.08134 4.87562 6.07259 4.87562C7.06384 4.87562 7.86985 5.68162 7.86985 6.67287C7.86985 7.66412 7.06384 8.47012 6.07259 8.47012ZM10.9021 8.47012C9.91086 8.47012 9.10485 7.66412 9.10485 6.67287C9.10485 5.68162 9.91086 4.87562 10.9021 4.87562C11.8934 4.87562 12.6993 5.68162 12.6993 6.67287C12.6993 7.66412 11.8966 8.47012 10.9021 8.47012ZM15.6243 8.47012C14.6331 8.47012 13.8271 7.66412 13.8271 6.67287C13.8271 5.68162 14.6331 4.87562 15.6243 4.87562C16.6156 4.87562 17.4216 5.68162 17.4216 6.67287C17.4216 7.66412 16.6156 8.47012 15.6243 8.47012ZM20.3466 8.47012C19.3554 8.47012 18.5493 7.66412 18.5493 6.67287C18.5493 5.68162 19.3554 4.87562 20.3466 4.87562C21.3379 4.87562 22.1438 5.68162 22.1438 6.67287C22.1438 7.66412 21.3379 8.47012 20.3466 8.47012Z" fill="#203686"/>
</svg>
