<svg width="26" height="28" viewBox="0 0 26 28" fill="none" xmlns="http://www.w3.org/2000/svg">
<path d="M4.95403 8.1795V9.1245C4.25403 9.1245 3.68703 9.73699 3.68703 10.493V25.998C3.68703 26.754 4.25403 27.3665 4.95403 27.3665H11.296C11.996 27.3665 12.563 26.754 12.563 25.998V10.493C12.563 9.73699 11.996 9.1245 11.296 9.1245V7.756C11.296 7 10.729 6.3875 10.029 6.3875H9.53903L8.92653 2.7405C9.32903 2.653 9.61603 2.2715 9.60903 1.827V0.913495C9.60903 0.409495 9.23103 0 8.76203 0H7.07153C6.77053 0.0035 6.49403 0.174996 6.34353 0.454996H5.38103C3.51203 0.454996 2.00003 2.0895 2.00003 4.102V4.557C1.99303 6.398 3.26353 7.9485 4.95403 8.1795ZM11.7195 20.979H4.53053V15.9635H11.7195V20.979ZM11.296 26.4495H4.95403C4.71953 26.4495 4.53053 26.2465 4.53053 25.9945V21.889H11.7195V25.9945C11.7195 26.2465 11.527 26.4495 11.296 26.4495ZM11.7195 10.4895V15.05H4.53053V10.4895C4.53053 10.2375 4.71953 10.0345 4.95403 10.0345H11.296C11.527 10.0345 11.7195 10.2375 11.7195 10.4895ZM10.449 7.7525V9.121H5.79753V7.7525C5.79753 7.5005 5.98653 7.2975 6.22103 7.2975H10.0255C10.26 7.2975 10.449 7.504 10.449 7.7525ZM7.15203 6.3875L7.76103 2.7405H8.06553L8.67453 6.3875H7.15203ZM8.75853 0.913495V1.827H7.06803V0.913495H8.75853ZM2.84003 4.10549C2.84003 2.59349 3.97753 1.3685 5.37753 1.3685H6.22453V1.8235C6.21753 2.2645 6.50453 2.6495 6.90703 2.737L6.29453 6.384C5.73803 6.3455 5.22353 6.706 5.02753 7.2695C3.77453 7.077 2.84703 5.9255 2.84703 4.5605V4.10549H2.84003Z" fill="#203686"/>
<path d="M6.64435 10.9444H5.79735C5.56286 10.9444 5.37385 11.1474 5.37385 11.3994C5.37385 11.6514 5.56286 11.8544 5.79735 11.8544H6.64435C6.87885 11.8544 7.06785 11.6514 7.06785 11.3994C7.06785 11.1474 6.87885 10.9444 6.64435 10.9444Z" fill="#203686"/>
<path d="M10.4489 10.9444H8.33486C8.10036 10.9444 7.91135 11.1474 7.91135 11.3994C7.91135 11.6514 8.10036 11.8544 8.33486 11.8544H10.4489C10.6834 11.8544 10.8724 11.6514 10.8724 11.3994C10.8724 11.1474 10.6834 10.9444 10.4489 10.9444Z" fill="#203686"/>
<path d="M12.3179 12.3516L11.9294 25.4836C11.9154 25.9771 12.1009 26.4566 12.4439 26.8101C12.7869 27.1636 13.2594 27.3631 13.7529 27.3631H21.8799C22.3734 27.3631 22.8459 27.1636 23.1889 26.8101C23.5319 26.4566 23.7174 25.9771 23.7034 25.4836L23.3149 12.3516C23.3009 11.7846 23.4059 11.2211 23.6299 10.6996C24.3019 9.1211 24.0849 7.3046 23.0594 5.9291L22.1459 4.71109C22.2929 4.54309 22.3734 4.32959 22.3734 4.10559V1.3686C22.3734 0.612599 21.7609 9.76525e-05 21.0049 9.76525e-05H14.6209C13.8649 9.76525e-05 13.2524 0.612599 13.2524 1.3686V4.10559C13.2524 4.32959 13.3364 4.54309 13.4834 4.70759L12.5664 5.9291C11.5409 7.3046 11.3239 9.12459 11.9959 10.7031C12.2269 11.2246 12.3354 11.7846 12.3179 12.3516ZM14.1694 2.7371H21.4669V4.10559H14.1694V2.7371ZM14.6279 0.913593H21.0119C21.2639 0.913593 21.4669 1.1166 21.4669 1.3686V1.82359H14.1694V1.3686C14.1694 1.1201 14.3759 0.913593 14.6279 0.913593ZM13.3049 6.47159L14.4004 5.01559H21.2394L22.3349 6.47159C23.1644 7.58809 23.3394 9.0616 22.7899 10.3391C22.5169 10.9831 22.3839 11.6796 22.4014 12.3761L22.7899 25.5081C22.7969 25.7531 22.7059 25.9946 22.5344 26.1696C22.3629 26.3446 22.1249 26.4461 21.8799 26.4461H13.7599C13.5149 26.4461 13.2769 26.3481 13.1054 26.1696C12.9339 25.9911 12.8394 25.7531 12.8499 25.5081L13.2384 12.3761C13.2559 11.6761 13.1229 10.9831 12.8499 10.3391C12.2969 9.0616 12.4719 7.58809 13.3049 6.47159Z" fill="#203686"/>
<path d="M15.0829 11.4031C14.5789 11.4031 14.1694 11.8126 14.1694 12.3166L13.8964 20.5241C13.8894 20.7726 13.9804 21.0106 14.1519 21.1891C14.3234 21.3676 14.5614 21.4691 14.8099 21.4691C16.8119 21.5251 18.8734 21.5251 20.8754 21.4691C21.1239 21.4691 21.3584 21.3676 21.5334 21.1891C21.7049 21.0106 21.7959 20.7691 21.7889 20.5241L21.4704 12.3166C21.4704 11.8126 21.0609 11.4031 20.5569 11.4031C17.4069 11.5011 15.2824 11.4031 15.0829 11.4031ZM20.5534 12.3131L20.8089 20.5206C18.8174 20.5766 16.7909 20.5766 14.7959 20.5206L15.0829 12.3131C16.9064 12.3796 18.7299 12.3796 20.5534 12.3131Z" fill="#203686"/>
<path d="M14.2534 10.0343C14.4039 10.0343 14.5474 9.96083 14.6314 9.83483C14.7154 9.70883 14.7329 9.55132 14.6769 9.41132C14.3409 8.64132 14.5579 7.74183 15.2089 7.20983C15.4119 7.05933 15.4504 6.77233 15.2999 6.57283C15.1494 6.36983 14.8624 6.33132 14.6629 6.48182C13.6829 7.26232 13.3399 8.59932 13.8299 9.75082C13.8964 9.91882 14.0644 10.0343 14.2534 10.0343Z" fill="#203686"/>
<path d="M15.0829 24.6259H14.1694C13.9174 24.6259 13.7144 24.8289 13.7144 25.0809C13.7144 25.3329 13.9174 25.5359 14.1694 25.5359H15.0829C15.3349 25.5359 15.5379 25.3329 15.5379 25.0809C15.5379 24.8289 15.3349 24.6259 15.0829 24.6259Z" fill="#203686"/>
<path d="M16.9063 24.6259C16.6543 24.6259 16.4513 24.8289 16.4513 25.0809C16.4513 25.3329 16.6543 25.5359 16.9063 25.5359H21.4668C21.7188 25.5359 21.9218 25.3329 21.9218 25.0809C21.9218 24.8289 21.7188 24.6259 21.4668 24.6259H16.9063Z" fill="#203686"/>
</svg>
