<svg width="26" height="26" viewBox="0 0 26 26" fill="none" xmlns="http://www.w3.org/2000/svg">
<path fill-rule="evenodd" clip-rule="evenodd" d="M2.58677 7.70693C4.19329 6.04002 6.97024 4.44135 11.6457 4.51476C14.8942 4.56646 17.7938 5.51425 19.8719 6.45175C20.9124 6.9212 21.7522 7.3904 22.3331 7.7488C22.6234 7.92787 22.851 8.08053 23.0082 8.19311C23.0546 8.22629 23.0962 8.25702 23.1325 8.28471H23.4257V9.46725L23.4224 9.46722V11.9828C24.5362 12.4375 25.1762 13.361 25.5288 14.1898C25.7455 14.6994 25.862 15.1892 25.92 15.5495C25.949 15.7297 25.9644 15.8832 25.9696 15.9962C25.972 16.05 25.9728 16.107 25.969 16.1575C25.9688 16.1603 25.9685 16.1643 25.968 16.1688C25.9685 16.2904 25.9691 16.459 25.9695 16.6545C25.9703 17.0556 25.9704 17.5707 25.9671 18.0246C25.9648 18.3386 25.8765 18.6048 25.7136 18.814C25.5544 19.0186 25.3505 19.1348 25.1711 19.2006C24.993 19.2659 24.823 19.2877 24.7033 19.2946C24.6421 19.2982 24.5902 19.298 24.5521 19.2969C24.5414 19.2965 24.5317 19.2961 24.5231 19.2957L24.3841 19.3039C24.2753 19.3104 24.1164 19.3199 23.9164 19.332C23.5163 19.3562 22.9517 19.3908 22.2939 19.4324C20.9779 19.5156 19.29 19.6268 17.7993 19.7387C16.354 19.8457 15.3565 20.1116 14.3721 20.4236C14.1809 20.4842 13.9888 20.547 13.793 20.6111C12.979 20.8774 12.102 21.1642 10.967 21.3947C7.57436 22.084 5.14335 21.4903 2.98826 20.3773C1.81298 19.7692 1.17973 18.9476 0.843996 18.2647C0.677325 17.9256 0.585226 17.6237 0.534492 17.4028C0.509095 17.2922 0.493947 17.2014 0.484993 17.1358C0.480513 17.103 0.477574 17.0763 0.475676 17.0566L0.473544 17.0322L0.472945 17.024L0.472742 17.0209L0.472662 17.0196C0.472646 17.0194 0.472595 17.0185 0.936063 16.991L0.472595 17.0185L0.471777 17.0048V12.623H0.472808C0.432286 12.2034 0.452178 11.8432 0.485877 11.5747C0.505612 11.4175 0.530194 11.2909 0.55059 11.2012C0.560795 11.1563 0.569977 11.1205 0.577021 11.0947C0.580504 11.0819 0.583468 11.0715 0.585778 11.0636L0.588773 11.0518C0.592758 11.0364 0.598454 11.0152 0.606055 10.9884C0.621253 10.9349 0.644081 10.8593 0.67608 10.7649C0.740048 10.5761 0.840855 10.3115 0.990927 9.99667C1.2909 9.36742 1.78939 8.53429 2.58677 7.70693ZM1.4853 11.294L1.48164 11.3095L1.47712 11.3239C1.47705 11.3242 1.47695 11.3245 1.47683 11.3249L1.47296 11.3387C1.46919 11.3525 1.46322 11.3755 1.45606 11.407C1.44174 11.47 1.42278 11.5665 1.40722 11.6904C1.37604 11.9388 1.35899 12.2939 1.41815 12.7104C1.42068 12.7282 1.42334 12.7461 1.42614 12.7641L6.72701 6.16192C5.14788 6.72404 4.03481 7.54257 3.25537 8.3513C2.53989 9.09369 2.09466 9.83925 1.82913 10.3963C1.69645 10.6746 1.60906 10.9049 1.55552 11.0629C1.52877 11.1419 1.51051 11.2026 1.49932 11.242C1.49372 11.2617 1.48989 11.2761 1.48765 11.2848L1.4853 11.294C1.48532 11.2939 1.48525 11.2942 1.4853 11.294ZM8.25971 5.73613L1.75373 13.8392C2.02165 14.4158 2.46983 15.0334 3.2076 15.6201C3.52157 15.8697 3.85065 16.0949 4.18997 16.2959L7.23045 12.3401C7.38671 12.1368 7.67819 12.0986 7.8815 12.2549C8.0848 12.4111 8.12294 12.7026 7.96668 12.9059L5.025 16.7332C6.454 17.3899 7.98688 17.65 9.29962 17.5245L13.1047 12.1812C12.9676 12.1468 12.8124 12.0963 12.6549 12.0219C12.4077 11.9052 12.1409 11.723 11.9364 11.4389C11.7282 11.1497 11.6043 10.7821 11.6064 10.3329C11.6084 9.88793 11.7293 9.52469 11.9336 9.23952C12.135 8.95853 12.3971 8.78133 12.6405 8.67002C12.8827 8.5593 13.1185 8.50806 13.2894 8.4837C13.376 8.47135 13.4491 8.46546 13.5022 8.46267C13.5288 8.46127 13.5507 8.46063 13.567 8.46037L13.5872 8.46019L13.594 8.46021L13.5966 8.46023L13.5977 8.46025L16.2329 8.48126L17.6407 6.55957C16.3864 6.12192 14.957 5.75003 13.4178 5.56552L10.4889 9.37931C10.3327 9.58268 10.0412 9.62093 9.83785 9.46475C9.63449 9.30856 9.59624 9.01709 9.75242 8.81373L12.3216 5.46842C12.0933 5.45544 11.8631 5.44691 11.6311 5.44322M18.5446 6.89701L17.3773 8.49039L21.8241 8.52587C21.2746 8.18802 20.4779 7.74387 19.49 7.29817C19.1914 7.16345 18.8757 7.0288 18.5446 6.89701ZM22.4939 9.45981L13.5879 9.38876L13.5823 9.38881C13.5764 9.38891 13.5657 9.38918 13.5509 9.38996C13.5212 9.39152 13.4759 9.39506 13.4204 9.40297C13.3071 9.41913 13.1639 9.45178 13.0266 9.51453C12.8906 9.57669 12.7729 9.66253 12.6884 9.78038C12.607 9.89404 12.5362 10.0654 12.5349 10.3371C12.5337 10.6045 12.6045 10.7776 12.69 10.8964C12.7792 11.0203 12.9052 11.1133 13.0513 11.1822C13.198 11.2515 13.3509 11.2897 13.4712 11.3099C13.5302 11.3199 13.5785 11.325 13.6104 11.3276C13.6262 11.3289 13.6378 11.3295 13.6444 11.3298L13.6467 11.3299L13.7071 11.3297C13.7523 11.3295 13.8188 11.3294 13.9043 11.3293C14.0754 11.3292 14.3227 11.3296 14.6283 11.3314C15.2393 11.3352 16.084 11.3448 17.0184 11.3687C18.8398 11.4152 21.032 11.5161 22.4939 11.7375V9.45981ZM14.1899 12.2581C14.3159 12.2584 14.461 12.259 14.6226 12.26C15.2293 12.2637 16.0678 12.2733 16.9947 12.297C17.5182 12.3103 18.0675 12.3281 18.6177 12.3517L15.9562 16.0555C15.0689 16.2076 14.1347 16.4324 13.2382 16.6582C13.0257 16.7117 12.8156 16.7651 12.6085 16.8178C11.89 17.0007 11.2086 17.1741 10.595 17.3063L14.1899 12.2581ZM17.2166 15.8928C17.2758 15.8882 17.3345 15.8842 17.3928 15.8808C18.6142 15.8087 20.6227 15.7468 22.3306 15.7098C23.1854 15.6913 23.9678 15.679 24.5418 15.6748C24.7134 15.6735 24.8673 15.6729 24.9993 15.6732C24.9492 15.3725 24.8509 14.9684 24.6743 14.5532C24.3108 13.6988 23.6495 12.8602 22.4403 12.6688C21.702 12.5519 20.7398 12.4679 19.721 12.4075L17.2166 15.8928ZM25.0408 16.6019C24.9044 16.6014 24.7388 16.6019 24.5487 16.6033C23.9806 16.6075 23.2029 16.6197 22.3507 16.6382C20.6444 16.6752 18.6505 16.7368 17.4475 16.8077C16.2853 16.8763 14.875 17.2036 13.4649 17.5586C13.2597 17.6103 13.0542 17.6627 12.8494 17.7148C11.673 18.0145 10.5239 18.3073 9.61732 18.4233C7.43193 18.7029 4.72348 18.0117 2.62969 16.3469C2.10971 15.9334 1.70829 15.5007 1.40035 15.0681V16.9714C1.4012 16.9798 1.40268 16.9929 1.40505 17.0103C1.41055 17.0507 1.42087 17.1138 1.4395 17.195C1.47682 17.3575 1.54702 17.59 1.67732 17.855C1.9355 18.3802 2.43508 19.0455 3.41437 19.5522C5.39977 20.5777 7.61624 21.128 10.7821 20.4848C11.8597 20.2659 12.6779 19.9985 13.4873 19.7339C13.688 19.6683 13.8881 19.6029 14.0916 19.5384C15.1172 19.2134 16.1889 18.9268 17.7303 18.8127C19.2262 18.7004 20.9181 18.589 22.2353 18.5057C22.8941 18.464 23.4595 18.4293 23.8603 18.4051C24.0607 18.393 24.2199 18.3835 24.329 18.377L24.4967 18.367L24.5334 18.3649L24.5653 18.368C24.5673 18.3681 24.5731 18.3685 24.5805 18.3687C24.5956 18.3692 24.6197 18.3693 24.6497 18.3676C24.7124 18.364 24.7857 18.3529 24.8514 18.3288C24.9157 18.3052 24.956 18.2756 24.9808 18.2437C25.002 18.2165 25.0375 18.1557 25.0385 18.0179C25.0418 17.5683 25.0418 17.0564 25.041 16.6564C25.0409 16.638 25.0409 16.6198 25.0408 16.6019ZM1.39935 16.9605C1.39931 16.9601 1.39932 16.9602 1.39935 16.9605V16.9605ZM8.25971 5.73613C9.23834 5.53361 10.3558 5.4232 11.6311 5.44322L8.25971 5.73613ZM8.88895 10.9291C8.91202 10.9291 8.93073 10.9104 8.93073 10.8873C8.93073 10.8642 8.91202 10.8455 8.88895 10.8455C8.86587 10.8455 8.84716 10.8642 8.84716 10.8873C8.84716 10.9104 8.86587 10.9291 8.88895 10.9291ZM8.00216 10.8873C8.00216 10.3975 8.3992 10.0005 8.88895 10.0005C9.37872 10.0005 9.77573 10.3975 9.77573 10.8873C9.77573 11.377 9.37872 11.7741 8.88895 11.7741C8.3992 11.7741 8.00216 11.3771 8.00216 10.8873Z" fill="#203686"/>
</svg>
