<svg width="26" height="26" viewBox="0 0 26 26" fill="none" xmlns="http://www.w3.org/2000/svg">
<path d="M18.2023 15.5981H21.6706C21.9088 15.5981 22.1028 15.792 22.1028 16.0302C22.1028 16.2684 21.9088 16.4624 21.6706 16.4624H18.2023C17.964 16.4624 17.77 16.2684 17.77 16.0302C17.7666 15.792 17.9606 15.5981 18.2023 15.5981Z" fill="#203686"/>
<path d="M13.4338 15.5981H16.4665C16.7047 15.5981 16.8987 15.792 16.8987 16.0302C16.8987 16.2684 16.7047 16.4624 16.4665 16.4624H13.4338C13.1956 16.4624 13.0016 16.2684 13.0016 16.0302C13.0016 15.792 13.1956 15.5981 13.4338 15.5981Z" fill="#203686"/>
<path d="M17.3343 13.8658H19.5024C19.7407 13.8658 19.9347 14.0598 19.9347 14.298C19.9347 14.5362 19.7407 14.7301 19.5024 14.7301H17.3343C17.0961 14.7301 16.9021 14.5362 16.9021 14.298C16.9021 14.0598 17.0961 13.8658 17.3343 13.8658Z" fill="#203686"/>
<path d="M15.1661 13.8658H15.5984C15.8366 13.8658 16.0306 14.0598 16.0306 14.298C16.0306 14.5362 15.8366 14.7301 15.5984 14.7301H15.1661C14.9279 14.7301 14.7339 14.5362 14.7339 14.298C14.7339 14.0598 14.9279 13.8658 15.1661 13.8658Z" fill="#203686"/>
<path d="M15.6019 17.3297H19.0702C19.3085 17.3297 19.5025 17.5237 19.5025 17.7619C19.5025 18.0001 19.3085 18.194 19.0702 18.194H15.6019C15.3637 18.194 15.1697 18.0001 15.1697 17.7619C15.1663 17.5237 15.3603 17.3297 15.6019 17.3297Z" fill="#203686"/>
<path d="M4.33243 23.3968H4.7647C5.00295 23.3968 5.19695 23.5908 5.19695 23.829C5.19695 24.0672 5.00295 24.2611 4.7647 24.2611H4.33243C4.09417 24.2611 3.90016 24.0672 3.90016 23.829C3.90016 23.5908 4.09417 23.3968 4.33243 23.3968Z" fill="#203686"/>
<path d="M6.50047 22.5291H6.93274C7.17099 22.5291 7.36501 22.7231 7.36501 22.9612C7.36501 23.1994 7.17099 23.3934 6.93274 23.3934H6.50047C6.26221 23.3934 6.0682 23.1994 6.0682 22.9612C6.0682 22.7231 6.26221 22.5291 6.50047 22.5291Z" fill="#203686"/>
<path d="M6.50047 20.3652H6.93274C7.17099 20.3652 7.36501 20.5591 7.36501 20.7973C7.36501 21.0355 7.17099 21.2295 6.93274 21.2295H6.50047C6.26221 21.2295 6.0682 21.0355 6.0682 20.7973C6.0682 20.5591 6.26221 20.3652 6.50047 20.3652Z" fill="#203686"/>
<path d="M11.269 23.3968H11.7013C11.9396 23.3968 12.1335 23.5908 12.1335 23.829C12.1335 24.0672 11.9396 24.2611 11.7013 24.2611H11.269C11.0308 24.2611 10.8368 24.0672 10.8368 23.829C10.8334 23.5908 11.0274 23.3968 11.269 23.3968Z" fill="#203686"/>
<path d="M10.8333 20.3652H11.269C11.5073 20.3652 11.7013 20.5591 11.7013 20.7973C11.7013 21.0355 11.5073 21.2295 11.269 21.2295H10.8367C10.5985 21.2295 10.4045 21.0355 10.4045 20.7973C10.4011 20.5591 10.5951 20.3652 10.8333 20.3652Z" fill="#203686"/>
<path d="M9.10095 18.1975H9.53322C9.77147 18.1975 9.96546 18.3914 9.96546 18.6296C9.96546 18.8678 9.77147 19.0617 9.53322 19.0617H9.10095C8.86269 19.0617 8.66868 18.8678 8.66868 18.6296C8.66868 18.3914 8.86269 18.1975 9.10095 18.1975Z" fill="#203686"/>
<path d="M13.0016 22.0968H13.4338C13.6721 22.0968 13.8661 22.2908 13.8661 22.529C13.8661 22.7672 13.6721 22.9611 13.4338 22.9611H13.0016C12.7633 22.9611 12.5693 22.7672 12.5693 22.529C12.5693 22.2908 12.7633 22.0968 13.0016 22.0968Z" fill="#203686"/>
<path d="M24.288 0.306246C24.1348 0.112292 23.8999 0 23.6549 0H11.1567C10.8231 0 10.5066 0.153124 10.299 0.411728L8.86946 2.19814C8.74012 2.35807 8.66864 2.55883 8.66864 2.76639V16.0743C8.15128 16.173 7.685 16.4418 7.34123 16.8433L0.105084 25.282C-0.0514839 25.4624 -0.0310571 25.738 0.15274 25.8945C0.231023 25.9626 0.329714 26 0.435227 26H23.6549C23.8863 26 24.1076 25.9081 24.2709 25.7448L25.7753 24.2408C25.9183 24.0979 26 23.9005 26 23.6964V2.74938C26 2.55883 25.9353 2.37508 25.8162 2.22537L24.288 0.306246ZM11.4052 0.867688H23.3724C23.5323 0.867688 23.6855 0.939146 23.7842 1.06505L24.9925 2.57244C25.0844 2.68813 25.1355 2.83104 25.1355 2.97736V7.36343H21.2111C20.9728 5.22314 19.0429 3.68172 16.9021 3.91991C15.0913 4.12067 13.6618 5.5498 13.4576 7.36003H9.53318V2.96035C9.53318 2.82084 9.58081 2.68813 9.6659 2.57924L10.8129 1.14331C10.9593 0.973171 11.1771 0.867688 11.4052 0.867688ZM10.8606 16.8399C10.5168 16.4418 10.0505 16.1696 9.53318 16.0709V8.23112H13.4576C13.6958 10.3714 15.6257 11.9128 17.7666 11.6712C19.5773 11.4705 21.0069 10.0414 21.2111 8.22772H25.1355V21.6582H14.996L10.8606 16.8399ZM18.2022 9.67727L19.1553 8.40806C19.2982 8.21751 19.2608 7.9453 19.0702 7.80238C18.8796 7.65947 18.6073 7.6969 18.4643 7.88745L18.158 8.29577C18.1172 8.03717 18.0457 7.78537 17.9504 7.54377L18.3963 6.64887C18.5018 6.4345 18.4167 6.17589 18.2022 6.06701C17.9878 5.96152 17.7291 6.04659 17.6202 6.26096L17.4262 6.64887C17.2016 6.36985 16.9395 6.12485 16.6434 5.92409C16.4289 5.77778 16.1362 5.86625 16.0205 6.09423C15.9218 6.28818 15.9865 6.52297 16.1669 6.64546C16.3949 6.80199 16.5991 6.99254 16.7693 7.21031L16.1294 7.05038C15.898 6.99254 15.6631 7.13205 15.6053 7.36684C15.5474 7.59822 15.6869 7.833 15.9218 7.89085L17.2356 8.21751C17.2458 8.22091 17.2526 8.22091 17.2628 8.22431C17.3139 8.43528 17.3411 8.65306 17.3411 8.87083V8.97631L16.5651 8.78236C16.3336 8.72451 16.0988 8.86402 16.0409 9.09881C15.9831 9.33019 16.1226 9.56497 16.3575 9.62282L17.3411 9.86782V10.8308C15.6359 10.8308 14.2608 9.42887 14.3051 7.71391C14.3493 6.13166 15.6665 4.81141 17.2526 4.76377C18.9681 4.71614 20.3738 6.09083 20.3772 7.79558C20.3772 9.13624 19.4956 10.3204 18.2091 10.7049L18.2022 9.67727ZM1.37464 25.1289L8.00154 17.398C8.17512 17.1938 8.39976 17.0271 8.65844 16.9522C9.24727 16.7787 9.84289 16.9897 10.2003 17.4048L16.8238 25.1289H1.37464ZM23.4268 25.1289H17.9674L15.738 22.5292H25.1355V23.3799C25.1355 23.5535 25.0674 23.7202 24.9449 23.8393L23.8183 24.9656C23.7127 25.0711 23.5732 25.1289 23.4268 25.1289Z" fill="#203686"/>
</svg>
