<svg width="20" height="12" viewBox="0 0 20 12" fill="none" xmlns="http://www.w3.org/2000/svg">
<path fill-rule="evenodd" clip-rule="evenodd" d="M10.9808 11.1532C10.9808 11.1532 11.3418 11.1138 11.5267 10.9189C11.6959 10.7403 11.69 10.4033 11.69 10.4033C11.69 10.4033 11.6675 8.82951 12.4119 8.59714C13.1456 8.36861 14.0876 10.1191 15.0873 10.7922C15.8425 11.3011 16.4157 11.1897 16.4157 11.1897L19.0872 11.1532C19.0872 11.1532 20.4841 11.0687 19.8218 9.99039C19.767 9.90205 19.4354 9.19246 17.8361 7.73488C16.1604 6.20913 16.3854 6.4559 18.4024 3.81631C19.6311 2.20894 20.1221 1.22762 19.9685 0.808009C19.8228 0.406646 18.9189 0.513228 18.9189 0.513228L15.9119 0.531472C15.9119 0.531472 15.6889 0.501706 15.5236 0.598686C15.3622 0.693745 15.2575 0.915551 15.2575 0.915551C15.2575 0.915551 14.7821 2.15901 14.1473 3.21715C12.8081 5.44865 12.273 5.56675 12.0539 5.42848C11.5443 5.1049 11.6714 4.1303 11.6714 3.43799C11.6714 1.27467 12.006 0.373039 11.0209 0.139711C10.6942 0.0619347 10.4536 0.0110442 9.61722 0.00240245C8.54413 -0.00815973 7.63636 0.00624326 7.12183 0.253014C6.77946 0.417208 6.51534 0.784004 6.67675 0.805128C6.87532 0.831054 7.32529 0.924193 7.56397 1.24298C7.87211 1.6549 7.86135 2.57861 7.86135 2.57861C7.86135 2.57861 8.0384 5.12506 7.44757 5.44097C7.04259 5.65797 6.48698 5.21532 5.29259 3.19026C4.68122 2.15325 4.21951 1.00677 4.21951 1.00677C4.21951 1.00677 4.13049 0.792646 3.97104 0.677422C3.77834 0.538193 3.50933 0.494984 3.50933 0.494984L0.652008 0.513228C0.652008 0.513228 0.222578 0.52475 0.0650879 0.708148C-0.0747948 0.870422 0.0543277 1.20745 0.0543277 1.20745C0.0543277 1.20745 2.29147 6.34547 4.82501 8.93513C7.14824 11.3087 9.78547 11.1532 9.78547 11.1532H10.9808Z" fill="#203686"/>
</svg>
