<svg width="27" height="26" viewBox="0 0 27 26" fill="none" xmlns="http://www.w3.org/2000/svg">
<path d="M23.4471 16.5198L23.0343 16.757L23.0798 16.029C23.0863 15.9185 23.0506 15.808 22.9758 15.7235C22.9011 15.639 22.7971 15.5903 22.6866 15.5805C22.5761 15.5708 22.4623 15.6065 22.3811 15.6813C22.2966 15.756 22.2478 15.86 22.2413 15.9738L22.1601 17.2608L20.4375 18.2553V16.2663L21.5101 15.5513C21.6336 15.4668 21.7051 15.3238 21.6953 15.1743C21.6856 15.0248 21.5978 14.8915 21.4613 14.8233C21.3281 14.7583 21.1656 14.768 21.0421 14.8493L20.4343 15.2523V14.7778C20.4343 14.547 20.2458 14.3585 20.0151 14.3585C19.7843 14.3585 19.5958 14.547 19.5958 14.7778V15.2523L18.988 14.846C18.8645 14.7615 18.702 14.7518 18.5688 14.82C18.4355 14.8883 18.3445 15.0183 18.3348 15.171C18.325 15.3205 18.3965 15.4635 18.52 15.548L19.5926 16.263V18.252L17.87 17.2575L17.7856 15.9705C17.7791 15.86 17.7303 15.7528 17.6458 15.6813C17.5613 15.6098 17.4508 15.5708 17.3403 15.5805C17.2298 15.587 17.1258 15.639 17.0511 15.7235C16.9763 15.808 16.9406 15.9153 16.9471 16.029L16.9958 16.757L16.5831 16.5198C16.4531 16.445 16.2906 16.4418 16.1606 16.5165C16.0306 16.5913 15.9493 16.731 15.9493 16.8805C15.9493 17.03 16.0306 17.1698 16.1606 17.2445L16.5733 17.4818L15.92 17.8068C15.712 17.9108 15.6243 18.161 15.7283 18.3723C15.8323 18.5803 16.0825 18.668 16.2938 18.564L17.4508 17.9888L19.1733 18.9833L17.4508 19.9778L16.2938 19.4058C16.0858 19.305 15.8356 19.3895 15.7316 19.5975C15.6276 19.8055 15.712 20.0558 15.92 20.1598L16.5733 20.4848L16.1606 20.722C16.0306 20.7968 15.9493 20.9366 15.9493 21.0861C15.9493 21.2355 16.0306 21.3753 16.1606 21.45C16.2906 21.5248 16.4531 21.5248 16.5831 21.4468L16.9958 21.2095L16.9503 21.9375C16.9438 22.048 16.9796 22.1586 17.0543 22.243C17.1291 22.3275 17.2331 22.3763 17.3435 22.386H17.3696C17.5906 22.386 17.7758 22.2138 17.7888 21.9928L17.8733 20.7058L19.5958 19.7113V21.7003L18.5233 22.4153C18.3316 22.5453 18.2795 22.8053 18.4063 22.997C18.533 23.1888 18.7963 23.2408 18.988 23.114L19.5958 22.7111V23.1855C19.5958 23.4163 19.7843 23.6048 20.0151 23.6048C20.2458 23.6048 20.4343 23.4163 20.4343 23.1855V22.7111L21.0421 23.1173C21.2338 23.2473 21.4971 23.1953 21.6238 23.0003C21.7506 22.8053 21.7018 22.5453 21.5068 22.4185L20.4343 21.7035V19.7146L22.1568 20.709L22.2413 21.996C22.2543 22.217 22.4396 22.3893 22.6606 22.3893H22.6866C22.7971 22.3828 22.9011 22.3308 22.9758 22.2463C23.0506 22.1618 23.0863 22.0545 23.0798 21.9408L23.031 21.2095L23.4438 21.4468C23.5738 21.5215 23.7363 21.5248 23.8663 21.45C23.9963 21.3753 24.0776 21.2355 24.0776 21.0861C24.0776 20.9366 23.9963 20.7968 23.8663 20.722L23.4535 20.4848L24.1068 20.1598C24.3148 20.0558 24.3961 19.8055 24.2953 19.5975C24.1913 19.3895 23.9411 19.305 23.7331 19.4058L22.5761 19.9778L20.8535 18.9833L22.5761 17.9888L23.7331 18.564C23.9411 18.6648 24.1913 18.5803 24.2953 18.3723C24.3993 18.1643 24.3148 17.914 24.1068 17.81L23.4535 17.485L23.8663 17.2478C23.9963 17.173 24.0776 17.0333 24.0776 16.8838C24.0776 16.7343 23.9963 16.5945 23.8663 16.5198C23.7363 16.445 23.5771 16.445 23.4471 16.5198Z" fill="#203686"/>
<path d="M24.9095 12.958C25.1597 12.841 25.3872 12.6818 25.5855 12.4868C26.7002 11.372 26.5215 9.37326 25.1792 8.02776C24.812 7.66376 24.3797 7.37126 23.902 7.17301C24.5032 6.02576 24.1912 4.44626 23.0667 3.32176C21.9422 2.19726 20.3595 1.88526 19.2155 2.48651C19.0172 2.00876 18.7247 1.57326 18.3575 1.20601C17.0152 -0.129739 15.0132 -0.311741 13.9017 0.803009C13.7067 0.998009 13.5475 1.22876 13.4305 1.47901C12.6992 0.838759 11.76 0.49101 10.7915 0.49426H10.7882C8.51973 0.50401 6.68672 2.34026 6.67697 4.60551C6.67372 5.67151 7.09622 6.69526 7.85347 7.44601C7.94122 7.53051 8.02897 7.61176 8.11997 7.68976C7.72022 8.58351 7.69423 9.59751 8.05173 10.5108C7.87623 12.2073 7.14172 13.7965 5.96847 15.0283L1.46722 19.5295C0.973223 20.043 0.986225 20.862 1.49972 21.3593L5.03247 24.8888C5.28272 25.1423 5.62398 25.2853 5.98148 25.2885C6.31298 25.2918 6.63148 25.1618 6.86548 24.9278L11.3667 20.4265C12.0395 19.7668 12.8422 19.2533 13.7197 18.912C13.7197 18.938 13.7165 18.9608 13.7165 18.9868C13.7132 21.551 15.2667 23.865 17.6425 24.8335C20.0182 25.802 22.745 25.2333 24.5357 23.397C26.3265 21.5608 26.827 18.821 25.8032 16.4713C26.0762 15.2265 25.748 13.92 24.9095 12.958ZM7.51548 4.60876C7.52523 2.80501 8.98448 1.34576 10.785 1.33601C11.6267 1.33276 12.436 1.66426 13.0307 2.26226C13.1217 2.35651 13.2062 2.45401 13.2875 2.55801C13.3915 2.69126 13.5637 2.74976 13.7262 2.70751C13.8887 2.66526 14.009 2.52876 14.035 2.36301C14.0805 2.00226 14.2397 1.66751 14.4932 1.40426C15.283 0.614511 16.7487 0.796513 17.7595 1.80726C18.1592 2.20701 18.442 2.70751 18.5785 3.25676C18.6142 3.39976 18.7215 3.51676 18.8612 3.56226C19.001 3.60776 19.157 3.57201 19.2675 3.47126C20.08 2.73676 21.484 2.93826 22.4687 3.92301C23.4535 4.90776 23.6517 6.31501 22.9205 7.12426C22.8197 7.23476 22.7872 7.38751 22.8295 7.53051C22.875 7.67351 22.9887 7.78076 23.135 7.81651C23.6842 7.94976 24.1847 8.23251 24.5812 8.63226C25.5887 9.64626 25.774 11.112 24.9842 11.9018C24.721 12.152 24.3862 12.3145 24.0255 12.36C23.8597 12.386 23.7232 12.5063 23.681 12.6688C23.6387 12.8313 23.6972 13.0035 23.8305 13.1075C24.487 13.6113 24.916 14.3588 25.0232 15.181C23.7102 13.4455 21.5912 12.5128 19.4235 12.7143C17.2557 12.9158 15.348 14.2255 14.3795 16.1755C13.5442 14.9795 13.528 13.4618 14.4152 12.5745C14.581 12.4088 14.5777 12.1455 14.4152 11.9798C14.2527 11.814 13.9862 11.8173 13.8205 11.9798C13.3037 12.477 12.592 12.7143 11.8802 12.633C11.0515 12.5485 10.2812 12.1748 9.69948 11.58C8.60098 10.4815 8.31173 8.89876 9.01048 7.81326C9.13398 7.62151 9.08197 7.36476 8.89348 7.23801C8.73098 7.12751 8.58148 7.00401 8.44173 6.86426C7.85023 6.25976 7.51548 5.45051 7.51548 4.60876ZM13.0307 15.155C13.1185 15.5255 13.2517 15.883 13.4337 16.2178C12.7252 16.3575 12.0297 16.5623 11.357 16.8288L13.0307 15.155ZM10.174 12.9548C10.5087 13.1368 10.863 13.2733 11.2335 13.361L9.55972 15.0315C9.82622 14.3588 10.031 13.6633 10.174 12.9548ZM10.7622 19.8318L6.26097 24.3363C6.07247 24.4955 5.79298 24.4793 5.62398 24.3005L3.85923 22.5358V22.5325L2.09448 20.7645C1.91248 20.5955 1.89623 20.3128 2.06198 20.1243L6.55998 15.623C7.62598 14.531 8.36048 13.1628 8.68548 11.671C8.81548 11.8433 8.95848 12.009 9.11123 12.1618C9.20873 12.2593 9.31273 12.3438 9.41348 12.4315C9.28673 13.2115 9.07548 13.9785 8.78298 14.713C8.63023 15.0835 8.76348 15.5093 9.09823 15.727C9.23798 15.8213 9.40048 15.87 9.56948 15.87C9.79373 15.87 10.0082 15.779 10.1642 15.6198L12.3255 13.4585C12.566 13.4488 12.8032 13.413 13.0372 13.3545C12.9787 13.5853 12.9462 13.8225 12.9365 14.0598L10.7687 16.2275C10.4795 16.507 10.4275 16.9555 10.6517 17.2935C10.8727 17.6315 11.3017 17.7648 11.6755 17.6088C12.4132 17.3163 13.177 17.1018 13.9602 16.975C13.9797 16.9978 14.0025 17.0205 14.022 17.0465C13.9245 17.352 13.853 17.664 13.801 17.9825C12.6635 18.3595 11.6267 18.9933 10.7687 19.8285L10.7622 19.8318ZM20.015 24.45C16.9957 24.45 14.5517 22.0028 14.5517 18.9868C14.5517 15.9675 16.999 13.5235 20.015 13.5235C23.0342 13.5235 25.4782 15.9708 25.4782 18.9868C25.475 22.0028 23.031 24.4468 20.015 24.45Z" fill="#203686"/>
<path d="M13.7165 6.30517C13.9115 6.42867 14.1715 6.37342 14.295 6.17842C14.6688 5.59342 14.802 4.88491 14.6655 4.20241C14.62 3.97491 14.3958 3.82866 14.1683 3.87416C13.9408 3.91966 13.7945 4.14392 13.84 4.37142C13.9343 4.83942 13.8433 5.32691 13.5865 5.72991C13.4695 5.92166 13.5248 6.17842 13.7165 6.30517Z" fill="#203686"/>
<path d="M14.0805 6.99454C13.9407 7.17979 13.9732 7.44304 14.1585 7.58279C14.724 8.02479 15.049 8.70729 15.0327 9.42229C15.0262 9.65304 15.2082 9.84804 15.439 9.85454H15.452C15.6795 9.85454 15.8647 9.67579 15.8712 9.44829C15.894 8.46029 15.4487 7.52104 14.6687 6.91329C14.5809 6.84504 14.4672 6.81579 14.3567 6.82879C14.2495 6.84829 14.1487 6.90679 14.0805 6.99454Z" fill="#203686"/>
<path d="M17.1354 7.24138C17.2134 7.24138 17.2914 7.21863 17.3564 7.17638C18.0909 6.71163 18.5849 5.95438 18.7149 5.09313C18.7409 4.94038 18.6857 4.78764 18.5654 4.69014C18.4452 4.59264 18.2827 4.56988 18.1397 4.62838C17.9967 4.68688 17.8991 4.82013 17.8829 4.97288C17.7919 5.58713 17.4344 6.12988 16.9112 6.46138C16.7519 6.56213 16.6772 6.75389 16.7292 6.93589C16.7812 7.11789 16.9469 7.24138 17.1354 7.24138Z" fill="#203686"/>
<path d="M10.7623 6.44194C10.8305 6.44194 10.9021 6.42569 10.9606 6.38994C11.3571 6.17869 11.8153 6.12019 12.2508 6.22744C12.4751 6.28269 12.7058 6.14619 12.761 5.92194C12.8163 5.69769 12.6798 5.46694 12.4555 5.41169C11.8185 5.25569 11.1426 5.34019 10.5641 5.65219C10.3951 5.74319 10.3105 5.93819 10.356 6.12669C10.4048 6.31194 10.5705 6.44194 10.7623 6.44194Z" fill="#203686"/>
<path d="M19.9955 10.5852C20.0898 10.6437 20.2035 10.6632 20.314 10.6372C20.4213 10.6112 20.5155 10.5462 20.5773 10.4487C20.9088 9.92221 21.4515 9.56796 22.0658 9.47696C22.2965 9.44446 22.4558 9.22996 22.42 8.99921C22.3843 8.76846 22.173 8.60921 21.9423 8.64496C21.0843 8.77496 20.3238 9.26895 19.859 10.0035C19.742 10.2017 19.8005 10.4617 19.9955 10.5852Z" fill="#203686"/>
<path d="M7.46349 15.9283L4.76274 18.6291C4.65224 18.7331 4.60999 18.8923 4.64899 19.0386C4.68799 19.1848 4.80174 19.3018 4.94799 19.3376C5.09424 19.3766 5.25024 19.3311 5.35749 19.2238L8.05824 16.5231C8.21749 16.3573 8.21424 16.0973 8.05174 15.9348C7.88924 15.7723 7.62924 15.7691 7.46349 15.9283Z" fill="#203686"/>
<path d="M3.5602 19.8315L3.2612 20.1305C3.1507 20.2345 3.10845 20.3937 3.14745 20.54C3.18645 20.6862 3.3002 20.8033 3.44645 20.839C3.5927 20.878 3.7487 20.8325 3.85595 20.7252L4.15495 20.4262C4.3142 20.2605 4.31095 20.0005 4.14845 19.838C3.9892 19.6755 3.72595 19.6722 3.5602 19.8315Z" fill="#203686"/>
</svg>
